<?xml version="1.0" encoding="utf-8"?><svg viewBox="0 0 219 53" xmlns="http://www.w3.org/2000/svg" xmlns:xlink="http://www.w3.org/1999/xlink"><style>:root>svg{display:none}:root>svg:target{display:block}</style><svg fill="none" viewBox="0 0 219 53" id="logo" xmlns="http://www.w3.org/2000/svg"><path d="M10.679 17.44h-.144a35.46 35.46 0 01-1.176.072l-.864.024c-.208.016-.432.032-.672.048-.24.016-.4.032-.48.048H6.67c-.032 0-.152.008-.36.024h-.408c-.064-.016-.256-.024-.576-.024h-.768a36.455 36.455 0 00-1.392 3.408 1.47 1.47 0 01-.768.84c-.368.176-.752.2-1.152.072a1.47 1.47 0 01-.84-.768 1.511 1.511 0 01-.072-1.152c.368-.896.784-1.904 1.248-3.024l1.632-3.888 1.344-3.216c.144-.336.336-.832.576-1.488.256-.672.416-1.104.48-1.296.208-.528.384-.928.528-1.2.128-.24.264-.432.408-.576.432-.512.96-.704 1.584-.576.304.064.576.208.816.432.096.096.184.208.264.336.096.144.2.328.312.552.16.304.344.72.552 1.248l.792 2.088c1.824 4.976 3.208 8.472 4.152 10.488.208.304.224.672.048 1.104a1.635 1.635 0 01-.84.888c-.368.16-.744.16-1.128 0a1.47 1.47 0 01-.816-.792l-1.608-3.672zm-4.872-2.784c.48 0 1.728-.056 3.744-.168L8.039 10.48l-.216-.672-.48 1.248-1.536 3.6zm13.847 6.792c-.272.32-.616.504-1.032.552a1.4 1.4 0 01-1.08-.312 1.523 1.523 0 01-.552-1.008c-.064-.64-.12-1.28-.168-1.92a41.72 41.72 0 01-.096-2.208l-.048-1.872c0-.432-.008-1.12-.024-2.064v-1.8c-.016-.416.12-.768.408-1.056.304-.304.656-.456 1.056-.456.416-.016.768.128 1.056.432.304.288.456.632.456 1.032.016.4.024.976.024 1.728v1.44c1.472-.048 3.072-.072 4.8-.072l-.072-3.096c-.016-.416.12-.776.408-1.08a1.373 1.373 0 011.032-.456c.416-.016.776.12 1.08.408.304.288.456.632.456 1.032.144 4.944.224 8.216.24 9.816A1.436 1.436 0 0126.134 22a1.436 1.436 0 01-1.512-1.464c-.032-1.12-.056-2.352-.072-3.696-1.76.016-3.368.048-4.824.096.048 1.216.128 2.352.24 3.408.048.416-.056.784-.312 1.104zm13.805 0c-.272.32-.616.504-1.032.552a1.4 1.4 0 01-1.08-.312 1.523 1.523 0 01-.552-1.008c-.064-.64-.12-1.28-.168-1.92a41.72 41.72 0 01-.096-2.208l-.048-1.872c0-.432-.008-1.12-.024-2.064v-1.8c-.016-.416.12-.768.408-1.056.304-.304.656-.456 1.056-.456.416-.016.768.128 1.056.432.304.288.456.632.456 1.032.016.4.024.976.024 1.728v1.44c1.472-.048 3.072-.072 4.8-.072l-.072-3.096c-.016-.416.12-.776.408-1.08a1.373 1.373 0 011.032-.456c.416-.016.776.12 1.08.408.304.288.456.632.456 1.032.144 4.944.224 8.216.24 9.816A1.436 1.436 0 0139.939 22a1.436 1.436 0 01-1.512-1.464c-.032-1.12-.056-2.352-.072-3.696-1.76.016-3.368.048-4.824.096.048 1.216.128 2.352.24 3.408.048.416-.056.784-.312 1.104zm16.397.408c-.816.256-1.576.304-2.28.144a4.902 4.902 0 01-1.896-.936 5.947 5.947 0 01-1.344-1.56 5.164 5.164 0 01-.624-1.848 9.225 9.225 0 01.192-3.504c.304-1.168.816-2.168 1.536-3 .8-.96 1.784-1.568 2.952-1.824 1.168-.272 2.488-.128 3.96.432.496.192 1.024.528 1.584 1.008.064.08.16.176.288.288l.384.336c.112.096.224.184.336.264.32.24.504.568.552.984.064.4-.024.76-.264 1.08-.192.24-.44.408-.744.504l.024.024c.128.288.2.664.216 1.128.016.192.016.376 0 .552v.288c0 .032.008.088.024.168.112.496.232 1.064.36 1.704.032.192.056.312.072.36a.954.954 0 00.12.144l1.032 1.008c.304.304.448.664.432 1.08 0 .4-.152.744-.456 1.032a1.328 1.328 0 01-1.032.408c-.4 0-.744-.144-1.032-.432l-1.008-.984c-.352-.352-.6-.672-.744-.96l-.024-.072c-.016.032-.08.12-.192.264l-.264.336-.336.36a4.344 4.344 0 01-.384.384l-.432.312c-.16.112-.328.216-.504.312-.16.08-.328.152-.504.216zm-.96-2.784a.938.938 0 00.192-.072c.064-.048.12-.088.168-.12.048-.048.112-.12.192-.216s.152-.176.216-.24.168-.176.312-.336l.312-.408c.112-.128.264-.424.456-.888a.532.532 0 00.024-.168 1.59 1.59 0 00.024-.336c.016-.176.04-.368.072-.576.112-1.104.56-1.848 1.344-2.232a.938.938 0 01.192-.072l-.384-.384c-.32-.272-.584-.448-.792-.528-1.504-.624-2.68-.432-3.528.576-.432.48-.744 1.104-.936 1.872a6.08 6.08 0 00-.12 2.352c.08.592.368 1.072.864 1.44.496.368.96.48 1.392.336zm27.494 2.496a12.431 12.431 0 00-.648-.696l-1.056-1.104a36 36 0 01-.84-.96c-.528-.624-1.24-1.6-2.136-2.928l-1.08-1.536-2.376 2.04c.048 1.424.12 2.768.216 4.032a1.47 1.47 0 01-.36 1.104 1.487 1.487 0 01-1.032.504c-.4.032-.76-.088-1.08-.36a1.465 1.465 0 01-.504-1.008c-.096-1.28-.176-2.656-.24-4.128-.24-.448-.248-.904-.024-1.368-.048-1.808-.072-4.784-.072-8.928 0-.416.144-.768.432-1.056.288-.288.64-.432 1.056-.432.416 0 .768.144 1.056.432.288.288.432.64.432 1.056 0 3.104.008 5.208.024 6.312 2-1.76 4.464-4.16 7.392-7.2a1.458 1.458 0 011.032-.48c.416-.016.776.12 1.08.408.304.272.464.616.48 1.032.016.4-.112.752-.384 1.056a235.48 235.48 0 01-4.92 4.92 48.89 48.89 0 011.344 1.92c.848 1.232 1.504 2.128 1.968 2.688.256.304.536.616.84.936l.984 1.032.864.888c.224.24.296.544.216.912-.064.368-.2.696-.408.984-.208.272-.568.4-1.08.384-.496-.016-.888-.168-1.176-.456zm8.878.432a7.678 7.678 0 01-2.472-.864c-.784-.496-1.408-1.088-1.872-1.776-.448-.736-.72-1.48-.816-2.232a7.771 7.771 0 01.048-2.28 7.698 7.698 0 01.744-2.136 7.54 7.54 0 011.368-1.8 6.432 6.432 0 011.848-1.296c.688-.336 1.456-.488 2.304-.456.864.016 1.72.248 2.568.696 1.12.592 1.96 1.424 2.52 2.496.272.496.432 1.104.48 1.824l.048.696c0 .224.008.4.024.528.048.288.008.56-.12.816a1.253 1.253 0 01-.552.6 1.257 1.257 0 01-.912.264 72.942 72.942 0 00-7.464-.048c.192.704.616 1.256 1.272 1.656.384.224.856.392 1.416.504.576.096 1.048.088 1.416-.024.144-.048.336-.168.576-.36l.504-.408c.208-.192.408-.352.6-.48.32-.224.672-.296 1.056-.216.4.08.712.288.936.624.224.32.296.672.216 1.056-.08.384-.28.696-.6.936-.096.064-.224.16-.384.288l-.528.456c-.56.416-1.088.696-1.584.84a6.097 6.097 0 01-2.64.096zm-1.872-7.872a84.268 84.268 0 015.688 0c-.016-.208-.048-.352-.096-.432a3.24 3.24 0 00-1.344-1.32c-.816-.416-1.6-.464-2.352-.144-.752.304-1.368.904-1.848 1.8l-.048.096zm17.32 7.656c-1.088.352-2.224.336-3.408-.048-.976-.32-1.776-.808-2.4-1.464-.624-.672-1.04-1.408-1.248-2.208a8.465 8.465 0 01-.216-2.448c.064-.816.232-1.6.504-2.352a8.181 8.181 0 011.224-2.112 5.668 5.668 0 011.848-1.488c.752-.384 1.584-.536 2.496-.456.912.08 1.8.408 2.664.984.448.304.856.768 1.224 1.392l.336.552c.096.176.184.312.264.408.224.32.296.68.216 1.08a1.427 1.427 0 01-.576.936 1.3 1.3 0 01-1.056.264c-.4-.08-.72-.28-.96-.6a6.688 6.688 0 01-.408-.648l-.288-.504c-.16-.256-.288-.416-.384-.48-.816-.56-1.568-.664-2.256-.312-.704.352-1.248 1.032-1.632 2.04-.416 1.072-.488 2.048-.216 2.928.288.88.864 1.464 1.728 1.752.608.176 1.16.184 1.656.024.096-.016.24-.12.432-.312l.408-.408c.224-.208.408-.376.552-.504.336-.24.696-.336 1.08-.288.4.032.72.208.96.528.256.32.36.68.312 1.08-.048.4-.224.72-.528.96a2.562 2.562 0 00-.36.312l-.432.432c-.512.48-1.024.8-1.536.96zm12.117 0c-1.088.352-2.224.336-3.408-.048-.976-.32-1.776-.808-2.4-1.464-.624-.672-1.04-1.408-1.248-2.208a8.465 8.465 0 01-.216-2.448c.064-.816.232-1.6.504-2.352a8.181 8.181 0 011.224-2.112 5.668 5.668 0 011.848-1.488c.752-.384 1.584-.536 2.496-.456.912.08 1.8.408 2.664.984.448.304.856.768 1.224 1.392l.336.552c.096.176.184.312.264.408.224.32.296.68.216 1.08a1.427 1.427 0 01-.576.936 1.3 1.3 0 01-1.056.264c-.4-.08-.72-.28-.96-.6a6.688 6.688 0 01-.408-.648l-.288-.504c-.16-.256-.288-.416-.384-.48-.816-.56-1.568-.664-2.256-.312-.704.352-1.248 1.032-1.632 2.04-.416 1.072-.488 2.048-.216 2.928.288.88.864 1.464 1.728 1.752.608.176 1.16.184 1.656.024.096-.016.24-.12.432-.312l.408-.408c.224-.208.408-.376.552-.504.336-.24.696-.336 1.08-.288.4.032.72.208.96.528.256.32.36.68.312 1.08-.048.4-.224.72-.528.96a2.562 2.562 0 00-.36.312l-.432.432c-.512.48-1.024.8-1.536.96zm6.405.336c-.256.32-.592.504-1.008.552a1.437 1.437 0 01-1.104-.312 1.455 1.455 0 01-.552-1.008 1.437 1.437 0 01.312-1.104l.864-.984c.304-.32.544-.584.72-.792.176-.208.328-.44.456-.696.224-.464.328-1.464.312-3 0-.56-.024-1.28-.072-2.16a70.466 70.466 0 01-.048-1.632 1.9 1.9 0 01.024-.312c.032-.368.176-.68.432-.936.272-.272.6-.416.984-.432.432-.032.88-.056 1.344-.072.48-.032.792-.048.936-.048.144-.016.312-.024.504-.024.208-.016.392-.024.552-.024h.624c.224 0 .584.008 1.08.024h1.632c.128 0 .256.016.384.048h.024c.416.032.752.208 1.008.528.272.32.392.68.36 1.08-.32 4-.48 7.24-.48 9.72 0 .416-.144.768-.432 1.056-.288.288-.64.432-1.056.432-.416 0-.768-.144-1.056-.432a1.436 1.436 0 01-.432-1.056c0-2.448.12-5.248.36-8.4-1.616 0-2.872.024-3.768.072.064 1.104.096 1.952.096 2.544 0 2.048-.208 3.488-.624 4.32-.176.368-.424.76-.744 1.176-.304.4-.64.792-1.008 1.176-.352.384-.56.616-.624.696zm16.936-.12a7.678 7.678 0 01-2.472-.864c-.784-.496-1.408-1.088-1.872-1.776-.448-.736-.72-1.48-.816-2.232a7.771 7.771 0 01.048-2.28 7.698 7.698 0 01.744-2.136 7.54 7.54 0 011.368-1.8 6.432 6.432 0 011.848-1.296c.688-.336 1.456-.488 2.304-.456.864.016 1.72.248 2.568.696 1.12.592 1.96 1.424 2.52 2.496.272.496.432 1.104.48 1.824l.048.696c0 .224.008.4.024.528.048.288.008.56-.12.816a1.253 1.253 0 01-.552.6 1.257 1.257 0 01-.912.264 72.942 72.942 0 00-7.464-.048c.192.704.616 1.256 1.272 1.656.384.224.856.392 1.416.504.576.096 1.048.088 1.416-.024.144-.048.336-.168.576-.36l.504-.408c.208-.192.408-.352.6-.48.32-.224.672-.296 1.056-.216.4.08.712.288.936.624.224.32.296.672.216 1.056-.08.384-.28.696-.6.936-.096.064-.224.16-.384.288l-.528.456c-.56.416-1.088.696-1.584.84a6.097 6.097 0 01-2.64.096zm-1.872-7.872a84.268 84.268 0 015.688 0c-.016-.208-.048-.352-.096-.432a3.24 3.24 0 00-1.344-1.32c-.816-.416-1.6-.464-2.352-.144-.752.304-1.368.904-1.848 1.8l-.048.096zm11.296 10.92l-.312-9.816a1.53 1.53 0 01-.456-.984 1.514 1.514 0 01.336-1.032l.072-.096-.048-2.232a1.476 1.476 0 01.384-1.08c.288-.304.64-.456 1.056-.456.592-.016 1.04.248 1.344.792 1.712-1.232 3.36-1.576 4.944-1.032a4.778 4.778 0 012.184 1.488 8.046 8.046 0 011.368 2.424c.704 1.808.784 3.48.24 5.016a5.783 5.783 0 01-1.44 2.448c-.672.688-1.52 1.16-2.544 1.416-1.232.288-2.376.2-3.432-.264a6.407 6.407 0 01-.84-.456c.048 1.36.088 2.616.12 3.768.016.416-.12.768-.408 1.056a1.402 1.402 0 01-1.032.48 1.432 1.432 0 01-1.08-.408 1.44 1.44 0 01-.456-1.032zm6.408-6.072c.88-.208 1.472-.672 1.776-1.392.336-1.136.288-2.328-.144-3.576-.4-1.136-.96-1.824-1.68-2.064-.8-.272-1.792.144-2.976 1.248-.208.192-.448.48-.72.864l.096 3.168.744.672c.304.288.552.504.744.648.192.128.408.248.648.36.432.192.936.216 1.512.072z" fill="#E98074"/><path d="M1.95 45.6v-2.76a122.61 122.61 0 000-3.22c0-.573-.013-1.413-.04-2.52-.013-1.12-.04-2.12-.08-3-.013-.387.107-.72.36-1 .267-.28.593-.433.98-.46h.1c1.84-.027 4.32-.027 7.44 0 .373 0 .7.14.98.42.267.28.4.613.4 1 0 .373-.14.7-.42.98a1.4 1.4 0 01-1 .4c-2.48-.027-4.48-.033-6-.02.027.853.047 1.747.06 2.68 1.88 0 3.613-.02 5.2-.06a1.4 1.4 0 011 .4c.28.267.42.593.42.98.013.373-.113.7-.38.98a1.35 1.35 0 01-.96.44c-1.6.027-3.353.047-5.26.06v4.7c0 .387-.14.72-.42 1-.267.267-.593.4-.98.4a1.4 1.4 0 01-1-.4 1.4 1.4 0 01-.4-1zm10.8.98a1.279 1.279 0 01-.42-.96c-.014-1.32-.02-2.36-.02-3.12a1.33 1.33 0 010-.46c-.014-1.48-.02-2.82-.02-4.02 0-.52.133-.913.4-1.18.28-.28.613-.42 1-.42.28 0 .533.08.76.24.24.147.413.413.52.8.533-.293 1.333-.627 2.4-1 .346-.12.68-.1 1 .06.333.147.56.393.68.74s.1.687-.06 1.02c-.147.32-.394.54-.74.66-1.227.427-2.274.847-3.14 1.26-.054.427-.06 1.033-.02 1.82.013.84.026 2.027.04 3.56 0 .387-.14.72-.42 1-.267.28-.594.42-.98.42-.374 0-.7-.14-.98-.42zm10.66.56c-1.16-.227-2.067-.76-2.72-1.6a5.66 5.66 0 01-1.2-2.88c-.12-1-.007-2 .34-3 .346-1.013.906-1.847 1.68-2.5.306-.267.7-.473 1.18-.62.013 0 .153-.04.42-.12.106-.027.186-.053.24-.08a1.37 1.37 0 011.12.04c1.253.2 2.093.407 2.52.62.493.24.913.573 1.26 1 .346.427.586.88.72 1.36.146.467.253.967.32 1.5.066.52.06.993-.02 1.42a7.724 7.724 0 01-.44 1.9 5.822 5.822 0 01-1.04 1.72 3.869 3.869 0 01-1.64 1.16c-.76.267-1.674.293-2.74.08zm.52-2.72c.573.107 1.006.107 1.3 0 .253-.093.506-.353.76-.78.266-.44.433-.993.5-1.66.08-.667.04-1.213-.12-1.64-.16-.44-.354-.713-.58-.82a2.027 2.027 0 00-.48-.16 4.061 4.061 0 00-.64-.1 8.473 8.473 0 01-.8-.16 5.2 5.2 0 01-.36.1l-.2.08c-.374.32-.66.76-.86 1.32-.2.56-.26 1.14-.18 1.74.066.573.24 1.04.52 1.4.293.36.673.587 1.14.68zm16.206 1.32c-.014.36-.154.667-.42.92a1.25 1.25 0 01-.94.36 1.292 1.292 0 01-.92-.42 1.25 1.25 0 01-.36-.94c0-.147.013-.587.04-1.32.04-.733.06-1.3.06-1.7.013-.4 0-.86-.04-1.38-.04-.533-.114-.96-.22-1.28a1.15 1.15 0 00-.48-.62c-.24-.173-.54-.273-.9-.3-.374-.04-.72.007-1.04.14-.307.12-.534.293-.68.52a4.41 4.41 0 00-.1.36v.26c0 .467.006 1.307.02 2.52.013 1.2.02 2.113.02 2.74 0 .387-.14.72-.42 1-.267.267-.594.4-.98.4a1.4 1.4 0 01-1-.4 1.4 1.4 0 01-.4-1c0-.56-.014-1.707-.04-3.44-.014-1.733-.067-3.06-.16-3.98-.067-.48.026-.86.28-1.14.253-.293.58-.44.98-.44.72.04 1.14.387 1.26 1.04.613-.773 1.46-1.18 2.54-1.22.946.013 1.72.273 2.32.78.6.493 1.033 1.153 1.3 1.98.146.453.246 1.027.3 1.72.066.693.093 1.28.08 1.76 0 .467-.02 1.093-.06 1.88l-.04 1.2zm5.972 1.3c-.267 0-.527-.087-.78-.26a2.428 2.428 0 01-.42-.2l-.52-.3c-.533-.307-.933-.593-1.2-.86-.227-.293-.367-.58-.42-.86-.053-.293-.087-.72-.1-1.28v-.4c-.013-.387-.02-1.287-.02-2.7 0-.573.007-1.007.02-1.3h-.38a1.28 1.28 0 01-.88-.34c-.24-.24-.36-.54-.36-.9 0-.373.127-.68.38-.92.253-.253.547-.38.88-.38h.36l.02-.86v-.62c.013-.427.153-.753.42-.98.28-.24.6-.36.96-.36.373 0 .7.127.98.38.293.253.44.6.44 1.04l-.04 1.36h.74c.48 0 .84.127 1.08.38.24.253.36.573.36.96 0 .373-.127.693-.38.96-.253.253-.627.38-1.12.38h-.74c0 .547-.007.953-.02 1.22-.013.28-.02.68-.02 1.2 0 .853.027 1.593.08 2.22.053.053.087.08.1.08l.2.14.16.08.18.1.16.08c.24.107.447.227.62.36.413.28.62.653.62 1.12 0 .373-.133.713-.4 1.02-.267.293-.587.44-.96.44zm4.14-4.12c-.374 0-.687-.127-.94-.38a1.32 1.32 0 01-.38-.94c0-.36.126-.667.38-.92.253-.267.566-.4.94-.4h3.54c.373 0 .686.133.94.4.253.253.38.56.38.92s-.127.673-.38.94c-.254.253-.567.38-.94.38h-3.54zm16.923 4.1c-1.973 0-4.666-.02-8.08-.06-.266 0-.513-.073-.74-.22a1.539 1.539 0 01-.48-.58c-.16-.24-.24-.5-.24-.78.014-.467.007-2.347-.02-5.64-.013-2.4.047-4.287.18-5.66.014-.173.054-.333.12-.48.107-.267.274-.48.5-.64.227-.173.487-.267.78-.28.974-.013 2.287-.013 3.94 0 1.654 0 2.967-.007 3.94-.02.387 0 .714.133.98.4.28.267.42.593.42.98 0 .373-.133.7-.4.98-.253.267-.573.4-.96.4h-3.34a136.01 136.01 0 00-3.34 0 79.2 79.2 0 00-.08 2.88c.64-.013 2.614-.02 5.92-.02.387 0 .714.133.98.4.28.267.42.593.42.98 0 .373-.14.7-.42.98-.266.267-.593.4-.98.4-3.32 0-5.286.007-5.9.02a92.2 92.2 0 01.02 3.16c2.707.027 4.967.04 6.78.04.387 0 .714.133.98.4.267.267.4.593.4.98s-.133.713-.4.98c-.266.267-.593.4-.98.4zm11.988-1.28c-.013.36-.153.667-.42.92s-.58.373-.94.36a1.292 1.292 0 01-.92-.42 1.25 1.25 0 01-.36-.94c0-.147.013-.587.04-1.32.04-.733.06-1.3.06-1.7.013-.4 0-.86-.04-1.38-.04-.533-.113-.96-.22-1.28a1.15 1.15 0 00-.48-.62c-.24-.173-.54-.273-.9-.3-.373-.04-.72.007-1.04.14-.306.12-.533.293-.68.52a4.453 4.453 0 00-.1.36v.26c0 .467.007 1.307.02 2.52.013 1.2.02 2.113.02 2.74 0 .387-.14.72-.42 1-.266.267-.593.4-.98.4a1.4 1.4 0 01-1-.4 1.4 1.4 0 01-.4-1c0-.56-.013-1.707-.04-3.44-.013-1.733-.066-3.06-.16-3.98-.067-.48.027-.86.28-1.14.254-.293.58-.44.98-.44.72.04 1.14.387 1.26 1.04.614-.773 1.46-1.18 2.54-1.22.947.013 1.72.273 2.32.78.6.493 1.034 1.153 1.3 1.98.147.453.247 1.027.3 1.72a14.6 14.6 0 01.08 1.76c0 .467-.02 1.093-.06 1.88l-.04 1.2zm6.472 1.46c-.76 0-1.493-.2-2.2-.6-.706-.4-1.286-.98-1.74-1.74-.44-.76-.66-1.653-.66-2.68 0-1.053.214-2.027.64-2.92.427-.893 1.02-1.6 1.78-2.12a4.443 4.443 0 012.58-.8c.68 0 1.334.12 1.96.36-.013-1.56-.026-2.44-.04-2.64 0-.44.14-.78.42-1.02.28-.253.607-.38.98-.38.36 0 .68.12.96.36.28.24.427.573.44 1 .067 6.547.1 10.42.1 11.62 0 .48-.113.853-.34 1.12-.213.253-.52.38-.92.38-.36 0-.66-.107-.9-.32-.226-.227-.36-.567-.4-1.02a3.42 3.42 0 01-1.08 1.02c-.413.253-.94.38-1.58.38zm.5-2.66c.427 0 .78-.14 1.06-.42.24-.24.454-.627.64-1.16.094-.24.174-.393.24-.46-.026-1.147-.04-1.987-.04-2.52a4.306 4.306 0 00-.24-.2c-.12-.12-.28-.253-.48-.4-.346-.227-.78-.34-1.3-.34-.68 0-1.22.287-1.62.86-.386.573-.58 1.26-.58 2.06 0 .747.214 1.367.64 1.86.427.48.987.72 1.68.72zm12.89 5l-.26-8.18a1.275 1.275 0 01-.38-.82c-.013-.32.08-.607.28-.86l.06-.08-.04-1.86a1.23 1.23 0 01.32-.9c.24-.253.534-.38.88-.38.494-.013.867.207 1.121.66 1.426-1.027 2.8-1.313 4.12-.86.72.24 1.326.653 1.82 1.24.493.6.873 1.273 1.14 2.02.586 1.507.653 2.9.2 4.18a4.827 4.827 0 01-1.2 2.04c-.56.573-1.267.967-2.12 1.18-1.027.24-1.98.167-2.86-.22a5.272 5.272 0 01-.7-.38c.04 1.133.073 2.18.1 3.14.013.347-.1.64-.34.88a1.17 1.17 0 01-.86.4c-.347.013-.647-.1-.9-.34a1.2 1.2 0 01-.38-.86zm5.341-5.06c.733-.173 1.226-.56 1.48-1.16.28-.947.24-1.94-.12-2.98-.334-.947-.8-1.52-1.4-1.72-.667-.227-1.494.12-2.48 1.04-.174.16-.374.4-.6.72l.08 2.64.62.56c.253.24.46.42.62.54.16.107.34.207.54.3.36.16.78.18 1.26.06zm10.656 2.4c-.68.213-1.314.253-1.9.12a4.079 4.079 0 01-1.58-.78 4.937 4.937 0 01-1.12-1.3 4.29 4.29 0 01-.52-1.54 7.674 7.674 0 01.16-2.92c.253-.973.68-1.807 1.28-2.5.666-.8 1.486-1.307 2.46-1.52.973-.227 2.073-.107 3.3.36.413.16.853.44 1.32.84.053.067.133.147.24.24l.32.28c.093.08.186.153.28.22.266.2.42.473.46.82.053.333-.02.633-.22.9-.16.2-.367.34-.62.42l.02.02c.106.24.166.553.18.94.013.16.013.313 0 .46v.24c0 .027.006.073.02.14.093.413.193.887.3 1.42.026.16.046.26.06.3.026.04.06.08.1.12l.86.84c.253.253.373.553.36.9 0 .333-.127.62-.38.86-.24.24-.527.353-.86.34-.334 0-.62-.12-.86-.36l-.84-.82c-.294-.293-.5-.56-.62-.8l-.02-.06a2.43 2.43 0 01-.16.22l-.22.28-.28.3c-.107.12-.214.227-.32.32l-.36.26c-.134.093-.274.18-.42.26a4.086 4.086 0 01-.42.18zm-.8-2.32a.8.8 0 00.16-.06c.053-.04.1-.073.14-.1.04-.04.093-.1.16-.18.066-.08.126-.147.18-.2.053-.053.14-.147.26-.28l.26-.34c.093-.107.22-.353.38-.74a.453.453 0 00.02-.14c.013-.053.02-.147.02-.28.013-.147.033-.307.06-.48.093-.92.466-1.54 1.12-1.86a.757.757 0 01.16-.06l-.32-.32c-.267-.227-.487-.373-.66-.44-1.254-.52-2.234-.36-2.94.48-.36.4-.62.92-.78 1.56a5.054 5.054 0 00-.1 1.96c.066.493.306.893.72 1.2.413.307.8.4 1.16.28zm11.281 2.7c-.867 0-1.62-.153-2.26-.46-.64-.32-1.127-.707-1.46-1.16-.334-.453-.5-.88-.5-1.28 0-.347.1-.633.3-.86.2-.24.46-.36.78-.36.333 0 .64.173.92.52.253.32.466.567.64.74.173.173.406.327.7.46.293.133.646.2 1.06.2.466 0 .853-.127 1.16-.38.32-.253.48-.54.48-.86 0-.36-.167-.653-.5-.88-.32-.24-.74-.36-1.26-.36-.414 0-.747-.1-1-.3a1.005 1.005 0 01-.36-.78c0-.32.113-.573.34-.76.226-.2.506-.3.84-.3.52 0 .933-.107 1.24-.32.306-.227.46-.507.46-.84 0-.28-.127-.5-.38-.66-.254-.173-.607-.26-1.06-.26-.547 0-1 .133-1.36.4-.36.253-.587.593-.68 1.02-.067.307-.187.547-.36.72a.896.896 0 01-.66.26c-.307 0-.547-.1-.72-.3a1.193 1.193 0 01-.26-.78c0-.6.173-1.153.52-1.66.346-.507.826-.907 1.44-1.2.626-.307 1.333-.46 2.12-.46.613 0 1.206.133 1.78.4.586.253 1.06.607 1.42 1.06.373.453.56.96.56 1.52 0 .48-.14.933-.42 1.36a2.983 2.983 0 01-1.14 1.04v-.58c1.213.52 1.82 1.347 1.82 2.48 0 .627-.174 1.22-.52 1.78-.347.547-.84.993-1.48 1.34-.64.333-1.374.5-2.2.5zm6.472 2.28l-.26-8.18a1.275 1.275 0 01-.38-.82c-.013-.32.08-.607.28-.86l.06-.08-.04-1.86a1.23 1.23 0 01.32-.9c.24-.253.533-.38.88-.38.493-.013.867.207 1.12.66 1.427-1.027 2.8-1.313 4.12-.86a3.98 3.98 0 011.82 1.24c.493.6.873 1.273 1.14 2.02.587 1.507.653 2.9.2 4.18a4.827 4.827 0 01-1.2 2.04c-.56.573-1.267.967-2.12 1.18-1.027.24-1.98.167-2.86-.22a5.335 5.335 0 01-.7-.38c.04 1.133.073 2.18.1 3.14.013.347-.1.64-.34.88a1.168 1.168 0 01-.86.4c-.347.013-.647-.1-.9-.34a1.198 1.198 0 01-.38-.86zm5.34-5.06c.733-.173 1.227-.56 1.48-1.16.28-.947.24-1.94-.12-2.98-.333-.947-.8-1.52-1.4-1.72-.667-.227-1.493.12-2.48 1.04-.173.16-.373.4-.6.72l.08 2.64.62.56c.253.24.46.42.62.54.16.107.34.207.54.3.36.16.78.18 1.26.06zm10.656 2.4c-.68.213-1.313.253-1.9.12a4.086 4.086 0 01-1.58-.78 4.956 4.956 0 01-1.12-1.3 4.31 4.31 0 01-.52-1.54 7.694 7.694 0 01.16-2.92c.253-.973.68-1.807 1.28-2.5.667-.8 1.487-1.307 2.46-1.52.973-.227 2.073-.107 3.3.36.413.16.853.44 1.32.84.053.067.133.147.24.24l.32.28c.093.08.187.153.28.22.267.2.42.473.46.82.053.333-.02.633-.22.9-.16.2-.367.34-.62.42l.02.02c.107.24.167.553.18.94.013.16.013.313 0 .46v.24c0 .027.007.073.02.14.093.413.193.887.3 1.42.027.16.047.26.06.3.027.04.06.08.1.12l.86.84c.253.253.373.553.36.9 0 .333-.127.62-.38.86-.24.24-.527.353-.86.34-.333 0-.62-.12-.86-.36l-.84-.82c-.293-.293-.5-.56-.62-.8l-.02-.06c-.013.027-.067.1-.16.22l-.22.28-.28.3c-.107.12-.213.227-.32.32l-.36.26c-.133.093-.273.18-.42.26a3.906 3.906 0 01-.42.18zm-.8-2.32a.778.778 0 00.16-.06c.053-.04.1-.073.14-.1.04-.04.093-.1.16-.18.067-.08.127-.147.18-.2.053-.053.14-.147.26-.28l.26-.34c.093-.107.22-.353.38-.74a.453.453 0 00.02-.14c.013-.053.02-.147.02-.28.013-.147.033-.307.06-.48.093-.92.467-1.54 1.12-1.86a.778.778 0 01.16-.06l-.32-.32c-.267-.227-.487-.373-.66-.44-1.253-.52-2.233-.36-2.94.48-.36.4-.62.92-.78 1.56a5.074 5.074 0 00-.1 1.96c.067.493.307.893.72 1.2.413.307.8.4 1.16.28zm13.301 2.38c-1.453.2-2.68-.087-3.68-.86-.84-.653-1.453-1.6-1.84-2.84a11.9 11.9 0 01-.44-3.3c.027-1.08.167-2.087.42-3.02.293-1.067.66-1.88 1.1-2.44.547-.693 1.347-1.233 2.4-1.62.36-.133.873-.193 1.54-.18.333 0 .54-.013.62-.04.12-.04.273-.153.46-.34l.38-.34a5.78 5.78 0 01.46-.42c.28-.213.587-.3.92-.26.347.04.627.2.84.48.213.267.3.573.26.92-.04.333-.193.607-.46.82l-.32.28-.4.36c-.413.387-.82.66-1.22.82-.387.147-.913.22-1.58.22-.36-.013-.58 0-.66.04-.6.213-1.027.48-1.28.8-.12.16-.227.353-.32.58.867-.467 1.727-.653 2.58-.56.853.08 1.647.393 2.38.94.84.64 1.453 1.487 1.84 2.54s.44 2.16.16 3.32c-.307 1.187-.773 2.1-1.4 2.74-.733.747-1.653 1.2-2.76 1.36zm-.36-2.48c.56-.08 1.013-.293 1.36-.64.293-.307.533-.833.72-1.58.173-.667.153-1.293-.06-1.88a2.95 2.95 0 00-1.02-1.4 1.928 1.928 0 00-1.32-.46c-.48.013-.927.227-1.34.64-.133.12-.267.34-.4.66a2.372 2.372 0 00-.08.18c-.027.067-.06.14-.1.22a1.322 1.322 0 00-.06.18c-.12.267-.227.493-.32.68-.093.173-.22.32-.38.44.053.36.127.693.22 1 .24.747.567 1.28.98 1.6.453.347 1.053.467 1.8.36zm8.558 1.98a4.48 4.48 0 01-1.9-2.04 6.517 6.517 0 01-.64-2.84c0-.987.207-1.927.62-2.82a4.593 4.593 0 011.9-2.06c.4-.227.914-.36 1.54-.4.2-.2.44-.32.72-.36.294-.04.567.02.82.18.32.213.794.493 1.42.84.534.307.927.56 1.18.76.4.36.7.787.9 1.28.214.493.38 1.133.5 1.92a6.048 6.048 0 01-.24 2.76c-.293.907-.766 1.66-1.42 2.26a4.251 4.251 0 01-2.46 1.14c-.933.107-1.913-.1-2.94-.62zm1.18-2.16c.987.547 1.834.493 2.54-.16.347-.32.607-.733.78-1.24.174-.52.214-1.067.12-1.64-.133-.92-.326-1.48-.58-1.68-.12-.107-.366-.267-.74-.48l-.72-.4a3.11 3.11 0 01-.38.02h-.22c-.133 0-.233.007-.3.02-.24.013-.4.04-.48.08-.386.227-.7.587-.94 1.08-.226.493-.34 1.06-.34 1.7 0 .627.114 1.187.34 1.68.227.48.534.82.92 1.02zm12.165 1.52c0 .333-.126.627-.38.88a1.13 1.13 0 01-.88.34c-.333 0-.626-.12-.88-.36a1.195 1.195 0 01-.34-.9c.027-2.52.02-4.8-.02-6.84-1.066 0-1.773-.007-2.12-.02-.333 0-.626-.12-.88-.36a1.24 1.24 0 01-.36-.88c.014-.347.14-.64.38-.88.254-.253.554-.373.9-.36 3.84.027 6.127.04 6.86.04.347-.013.64.107.88.36.254.24.38.533.38.88.014.333-.106.627-.36.88-.24.24-.526.36-.86.36-.226.013-1 .02-2.32.02.027 2.053.027 4.333 0 6.84zm10.793-2.26c-.88.173-1.534.253-1.96.24-1.054-.04-1.887-.227-2.5-.56-.774-.44-1.307-1.1-1.6-1.98-.294-.867-.467-2.053-.52-3.56a1.199 1.199 0 01.32-.88c.24-.253.526-.387.86-.4.346-.013.646.1.9.34.253.227.386.513.4.86.08 2.013.366 3.16.86 3.44.253.147.706.227 1.36.24.4.013 1.006-.06 1.82-.22-.054-1.24-.114-2.367-.18-3.38a1.132 1.132 0 01.3-.88 1.19 1.19 0 01.84-.44c.346-.027.646.073.9.3.266.227.413.513.44.86.106 1.413.213 4.153.32 8.22.013.347-.1.647-.34.9-.227.253-.514.38-.86.38a1.229 1.229 0 01-.9-.32 1.163 1.163 0 01-.38-.88l-.08-2.28zm5.537 3.28c-.427-.293-.607-.693-.54-1.2v-.12a59.371 59.371 0 01.1-8.04c.026-.347.166-.627.42-.84.266-.227.573-.327.92-.3.346.027.626.173.84.44.226.253.326.553.3.9-.12 1.56-.18 3.053-.18 4.48l.92-1.18c1.253-1.64 2.2-2.993 2.84-4.06.213-.347.513-.547.9-.6.146-.053.293-.08.44-.08.346-.013.646.1.9.34.253.227.38.513.38.86.026.853.033 2.233.02 4.14-.014 1.747 0 3.133.04 4.16.013.347-.1.647-.34.9a1.17 1.17 0 01-.86.4 1.202 1.202 0 01-.88-.32 1.211 1.211 0 01-.4-.86c-.04-1-.054-2.567-.04-4.7l-1.02 1.34c-1.88 2.48-2.894 3.82-3.04 4.02a1.108 1.108 0 01-.8.52c-.334.067-.64 0-.92-.2zm18.089-.22c-1.347-1.44-2.467-2.773-3.36-4l-1.42 1.3c.053.573.12 1.147.2 1.72.04.347-.04.66-.24.94-.2.267-.474.42-.82.46a1.211 1.211 0 01-1.42-1.04c-.334-2.373-.434-5.18-.3-8.42.013-.347.146-.633.4-.86.253-.24.553-.347.9-.32.346.013.633.147.86.4.24.253.346.553.32.9-.04 1.08-.06 2.073-.06 2.98l4.38-4a1.16 1.16 0 01.9-.32c.346.013.633.153.86.42.24.253.346.553.32.9a1.152 1.152 0 01-.4.84l-2.62 2.4c.866 1.24 1.993 2.58 3.38 4.02.226.267.326.573.3.92-.014.333-.154.62-.42.86a1.164 1.164 0 01-.9.3 1.214 1.214 0 01-.86-.4z" fill="#444"/></svg></svg>