<svg width="219" height="53" viewBox="0 0 219 53" fill="none" xmlns="http://www.w3.org/2000/svg">
<path d="M10.6788 17.44H10.5348C10.1188 17.472 9.72684 17.496 9.35884 17.512L8.49484 17.536C8.28684 17.552 8.06284 17.568 7.82284 17.584C7.58284 17.6 7.42284 17.616 7.34284 17.632C7.27884 17.632 7.15884 17.632 6.98284 17.632H6.67084C6.63884 17.632 6.51884 17.64 6.31084 17.656C6.11884 17.656 5.98284 17.656 5.90284 17.656C5.83884 17.64 5.64684 17.632 5.32684 17.632H4.55884C4.01484 18.8 3.55084 19.936 3.16684 21.04C3.02284 21.424 2.76684 21.704 2.39884 21.88C2.03084 22.056 1.64684 22.08 1.24684 21.952C0.862844 21.808 0.582844 21.552 0.406844 21.184C0.230844 20.816 0.206844 20.432 0.334844 20.032C0.702844 19.136 1.11884 18.128 1.58284 17.008L3.21484 13.12L4.55884 9.904C4.70284 9.568 4.89484 9.072 5.13484 8.416C5.39084 7.744 5.55084 7.312 5.61484 7.12C5.82284 6.592 5.99884 6.192 6.14284 5.92C6.27084 5.68 6.40684 5.488 6.55084 5.344C6.98284 4.832 7.51084 4.64 8.13484 4.768C8.43884 4.832 8.71084 4.976 8.95084 5.2C9.04684 5.296 9.13484 5.408 9.21484 5.536C9.31084 5.68 9.41484 5.864 9.52684 6.088C9.68684 6.392 9.87084 6.808 10.0788 7.336L10.8708 9.424C12.6948 14.4 14.0788 17.896 15.0228 19.912C15.2308 20.216 15.2468 20.584 15.0708 21.016C14.8948 21.432 14.6148 21.728 14.2308 21.904C13.8628 22.064 13.4868 22.064 13.1028 21.904C12.7188 21.744 12.4468 21.48 12.2868 21.112L10.6788 17.44ZM5.80684 14.656C6.28684 14.656 7.53484 14.6 9.55084 14.488L8.03884 10.48L7.82284 9.808L7.34284 11.056L5.80684 14.656ZM19.6543 21.448C19.3823 21.768 19.0383 21.952 18.6223 22C18.2223 22.048 17.8623 21.944 17.5423 21.688C17.2223 21.416 17.0383 21.08 16.9903 20.68C16.9263 20.04 16.8703 19.4 16.8223 18.76C16.7743 18.104 16.7423 17.368 16.7263 16.552L16.6783 14.68C16.6783 14.248 16.6703 13.56 16.6543 12.616C16.6543 11.672 16.6543 11.072 16.6543 10.816C16.6383 10.4 16.7743 10.048 17.0623 9.76C17.3663 9.456 17.7183 9.304 18.1183 9.304C18.5343 9.288 18.8863 9.432 19.1743 9.736C19.4783 10.024 19.6303 10.368 19.6303 10.768C19.6463 11.168 19.6543 11.744 19.6543 12.496V13.936C21.1263 13.888 22.7263 13.864 24.4543 13.864L24.3823 10.768C24.3663 10.352 24.5023 9.992 24.7903 9.688C25.0783 9.384 25.4223 9.232 25.8223 9.232C26.2383 9.216 26.5983 9.352 26.9023 9.64C27.2063 9.928 27.3583 10.272 27.3583 10.672C27.5023 15.616 27.5823 18.888 27.5983 20.488C27.6143 20.904 27.4783 21.264 27.1903 21.568C26.9023 21.856 26.5503 22 26.1343 22C25.7183 22.016 25.3583 21.88 25.0543 21.592C24.7663 21.304 24.6223 20.952 24.6223 20.536C24.5903 19.416 24.5663 18.184 24.5503 16.84C22.7903 16.856 21.1823 16.888 19.7263 16.936C19.7743 18.152 19.8543 19.288 19.9663 20.344C20.0143 20.76 19.9103 21.128 19.6543 21.448ZM33.459 21.448C33.187 21.768 32.843 21.952 32.427 22C32.027 22.048 31.667 21.944 31.347 21.688C31.027 21.416 30.843 21.08 30.795 20.68C30.731 20.04 30.675 19.4 30.627 18.76C30.579 18.104 30.547 17.368 30.531 16.552L30.483 14.68C30.483 14.248 30.475 13.56 30.459 12.616C30.459 11.672 30.459 11.072 30.459 10.816C30.443 10.4 30.579 10.048 30.867 9.76C31.171 9.456 31.523 9.304 31.923 9.304C32.339 9.288 32.691 9.432 32.979 9.736C33.283 10.024 33.435 10.368 33.435 10.768C33.451 11.168 33.459 11.744 33.459 12.496V13.936C34.931 13.888 36.531 13.864 38.259 13.864L38.187 10.768C38.171 10.352 38.307 9.992 38.595 9.688C38.883 9.384 39.227 9.232 39.627 9.232C40.043 9.216 40.403 9.352 40.707 9.64C41.011 9.928 41.163 10.272 41.163 10.672C41.307 15.616 41.387 18.888 41.403 20.488C41.419 20.904 41.283 21.264 40.995 21.568C40.707 21.856 40.355 22 39.939 22C39.523 22.016 39.163 21.88 38.859 21.592C38.571 21.304 38.427 20.952 38.427 20.536C38.395 19.416 38.371 18.184 38.355 16.84C36.595 16.856 34.987 16.888 33.531 16.936C33.579 18.152 33.659 19.288 33.771 20.344C33.819 20.76 33.715 21.128 33.459 21.448ZM49.8557 21.856C49.0397 22.112 48.2797 22.16 47.5757 22C46.8717 21.824 46.2397 21.512 45.6797 21.064C45.1357 20.616 44.6877 20.096 44.3357 19.504C43.9997 18.896 43.7917 18.28 43.7117 17.656C43.5517 16.472 43.6157 15.304 43.9037 14.152C44.2077 12.984 44.7197 11.984 45.4397 11.152C46.2397 10.192 47.2237 9.584 48.3917 9.328C49.5597 9.056 50.8797 9.2 52.3517 9.76C52.8477 9.952 53.3757 10.288 53.9357 10.768C53.9997 10.848 54.0957 10.944 54.2237 11.056L54.6077 11.392C54.7197 11.488 54.8317 11.576 54.9437 11.656C55.2637 11.896 55.4477 12.224 55.4957 12.64C55.5597 13.04 55.4717 13.4 55.2317 13.72C55.0397 13.96 54.7917 14.128 54.4877 14.224L54.5117 14.248C54.6397 14.536 54.7117 14.912 54.7277 15.376C54.7437 15.568 54.7437 15.752 54.7277 15.928C54.7277 16.088 54.7277 16.184 54.7277 16.216C54.7277 16.248 54.7357 16.304 54.7517 16.384C54.8637 16.88 54.9837 17.448 55.1117 18.088C55.1437 18.28 55.1677 18.4 55.1837 18.448C55.2157 18.496 55.2557 18.544 55.3037 18.592L56.3357 19.6C56.6397 19.904 56.7837 20.264 56.7677 20.68C56.7677 21.08 56.6157 21.424 56.3117 21.712C56.0237 22 55.6797 22.136 55.2797 22.12C54.8797 22.12 54.5357 21.976 54.2477 21.688L53.2397 20.704C52.8877 20.352 52.6397 20.032 52.4957 19.744L52.4717 19.672C52.4557 19.704 52.3917 19.792 52.2797 19.936L52.0157 20.272L51.6797 20.632C51.5517 20.776 51.4237 20.904 51.2957 21.016L50.8637 21.328C50.7037 21.44 50.5357 21.544 50.3597 21.64C50.1997 21.72 50.0317 21.792 49.8557 21.856ZM48.8957 19.072C48.9597 19.056 49.0237 19.032 49.0877 19C49.1517 18.952 49.2077 18.912 49.2557 18.88C49.3037 18.832 49.3677 18.76 49.4477 18.664C49.5277 18.568 49.5997 18.488 49.6637 18.424C49.7277 18.36 49.8317 18.248 49.9757 18.088L50.2877 17.68C50.3997 17.552 50.5517 17.256 50.7437 16.792C50.7597 16.744 50.7677 16.688 50.7677 16.624C50.7837 16.56 50.7917 16.448 50.7917 16.288C50.8077 16.112 50.8317 15.92 50.8637 15.712C50.9757 14.608 51.4237 13.864 52.2077 13.48C52.2717 13.448 52.3357 13.424 52.3997 13.408L52.0157 13.024C51.6957 12.752 51.4317 12.576 51.2237 12.496C49.7197 11.872 48.5437 12.064 47.6957 13.072C47.2637 13.552 46.9517 14.176 46.7597 14.944C46.5677 15.696 46.5277 16.48 46.6397 17.296C46.7197 17.888 47.0077 18.368 47.5037 18.736C47.9997 19.104 48.4637 19.216 48.8957 19.072ZM76.3897 21.568C76.1977 21.344 75.9817 21.112 75.7417 20.872L74.6857 19.768C74.3817 19.432 74.1017 19.112 73.8457 18.808C73.3177 18.184 72.6057 17.208 71.7097 15.88L70.6297 14.344L68.2537 16.384C68.3017 17.808 68.3737 19.152 68.4697 20.416C68.5017 20.832 68.3817 21.2 68.1097 21.52C67.8377 21.824 67.4937 21.992 67.0777 22.024C66.6777 22.056 66.3177 21.936 65.9977 21.664C65.6937 21.392 65.5257 21.056 65.4937 20.656C65.3977 19.376 65.3177 18 65.2537 16.528C65.0137 16.08 65.0057 15.624 65.2297 15.16C65.1817 13.352 65.1577 10.376 65.1577 6.232C65.1577 5.816 65.3017 5.464 65.5897 5.176C65.8777 4.888 66.2297 4.744 66.6457 4.744C67.0617 4.744 67.4137 4.888 67.7017 5.176C67.9897 5.464 68.1337 5.816 68.1337 6.232C68.1337 9.336 68.1417 11.44 68.1577 12.544C70.1577 10.784 72.6217 8.384 75.5497 5.344C75.8377 5.04 76.1817 4.88 76.5817 4.864C76.9977 4.848 77.3577 4.984 77.6617 5.272C77.9657 5.544 78.1257 5.888 78.1417 6.304C78.1577 6.704 78.0297 7.056 77.7577 7.36C75.8217 9.344 74.1817 10.984 72.8377 12.28C73.1737 12.728 73.6217 13.368 74.1817 14.2C75.0297 15.432 75.6857 16.328 76.1497 16.888C76.4057 17.192 76.6857 17.504 76.9897 17.824L77.9737 18.856L78.8377 19.744C79.0617 19.984 79.1337 20.288 79.0537 20.656C78.9897 21.024 78.8537 21.352 78.6457 21.64C78.4377 21.912 78.0777 22.04 77.5657 22.024C77.0697 22.008 76.6777 21.856 76.3897 21.568ZM85.2678 22C84.3558 21.84 83.5318 21.552 82.7958 21.136C82.0118 20.64 81.3878 20.048 80.9238 19.36C80.4758 18.624 80.2038 17.88 80.1078 17.128C80.0118 16.36 80.0278 15.6 80.1558 14.848C80.2998 14.096 80.5478 13.384 80.8998 12.712C81.2678 12.04 81.7238 11.44 82.2678 10.912C82.8118 10.368 83.4278 9.936 84.1158 9.616C84.8038 9.28 85.5718 9.128 86.4198 9.16C87.2838 9.176 88.1398 9.408 88.9878 9.856C90.1078 10.448 90.9478 11.28 91.5078 12.352C91.7798 12.848 91.9398 13.456 91.9878 14.176L92.0358 14.872C92.0358 15.096 92.0438 15.272 92.0598 15.4C92.1078 15.688 92.0678 15.96 91.9398 16.216C91.8278 16.472 91.6438 16.672 91.3878 16.816C91.1158 17.024 90.8118 17.112 90.4758 17.08C87.8838 16.936 85.3958 16.92 83.0118 17.032C83.2038 17.736 83.6278 18.288 84.2838 18.688C84.6678 18.912 85.1398 19.08 85.6998 19.192C86.2758 19.288 86.7478 19.28 87.1158 19.168C87.2598 19.12 87.4518 19 87.6918 18.808L88.1958 18.4C88.4038 18.208 88.6038 18.048 88.7958 17.92C89.1158 17.696 89.4678 17.624 89.8518 17.704C90.2518 17.784 90.5638 17.992 90.7878 18.328C91.0118 18.648 91.0838 19 91.0038 19.384C90.9238 19.768 90.7238 20.08 90.4038 20.32C90.3078 20.384 90.1798 20.48 90.0198 20.608L89.4918 21.064C88.9318 21.48 88.4038 21.76 87.9078 21.904C87.0598 22.128 86.1798 22.16 85.2678 22ZM83.3958 14.128C85.2518 14.064 87.1478 14.064 89.0838 14.128C89.0678 13.92 89.0358 13.776 88.9878 13.696C88.6838 13.136 88.2358 12.696 87.6438 12.376C86.8278 11.96 86.0438 11.912 85.2918 12.232C84.5398 12.536 83.9238 13.136 83.4438 14.032L83.3958 14.128ZM100.716 21.784C99.6278 22.136 98.4918 22.12 97.3078 21.736C96.3318 21.416 95.5318 20.928 94.9078 20.272C94.2838 19.6 93.8678 18.864 93.6598 18.064C93.4678 17.248 93.3958 16.432 93.4438 15.616C93.5078 14.8 93.6758 14.016 93.9478 13.264C94.2518 12.496 94.6598 11.792 95.1718 11.152C95.6998 10.512 96.3158 10.016 97.0198 9.664C97.7718 9.28 98.6038 9.128 99.5158 9.208C100.428 9.288 101.316 9.616 102.18 10.192C102.628 10.496 103.036 10.96 103.404 11.584L103.74 12.136C103.836 12.312 103.924 12.448 104.004 12.544C104.228 12.864 104.3 13.224 104.22 13.624C104.156 14.008 103.964 14.32 103.644 14.56C103.34 14.8 102.988 14.888 102.588 14.824C102.188 14.744 101.868 14.544 101.628 14.224C101.5 14.048 101.364 13.832 101.22 13.576L100.932 13.072C100.772 12.816 100.644 12.656 100.548 12.592C99.7318 12.032 98.9798 11.928 98.2918 12.28C97.5878 12.632 97.0438 13.312 96.6598 14.32C96.2438 15.392 96.1718 16.368 96.4438 17.248C96.7318 18.128 97.3078 18.712 98.1718 19C98.7798 19.176 99.3318 19.184 99.8278 19.024C99.9238 19.008 100.068 18.904 100.26 18.712L100.668 18.304C100.892 18.096 101.076 17.928 101.22 17.8C101.556 17.56 101.916 17.464 102.3 17.512C102.7 17.544 103.02 17.72 103.26 18.04C103.516 18.36 103.62 18.72 103.572 19.12C103.524 19.52 103.348 19.84 103.044 20.08C102.948 20.144 102.828 20.248 102.684 20.392L102.252 20.824C101.74 21.304 101.228 21.624 100.716 21.784ZM112.833 21.784C111.745 22.136 110.609 22.12 109.425 21.736C108.449 21.416 107.649 20.928 107.025 20.272C106.401 19.6 105.985 18.864 105.777 18.064C105.585 17.248 105.513 16.432 105.561 15.616C105.625 14.8 105.793 14.016 106.065 13.264C106.369 12.496 106.777 11.792 107.289 11.152C107.817 10.512 108.433 10.016 109.137 9.664C109.889 9.28 110.721 9.128 111.633 9.208C112.545 9.288 113.433 9.616 114.297 10.192C114.745 10.496 115.153 10.96 115.521 11.584L115.857 12.136C115.953 12.312 116.041 12.448 116.121 12.544C116.345 12.864 116.417 13.224 116.337 13.624C116.273 14.008 116.081 14.32 115.761 14.56C115.457 14.8 115.105 14.888 114.705 14.824C114.305 14.744 113.985 14.544 113.745 14.224C113.617 14.048 113.481 13.832 113.337 13.576L113.049 13.072C112.889 12.816 112.761 12.656 112.665 12.592C111.849 12.032 111.097 11.928 110.409 12.28C109.705 12.632 109.161 13.312 108.777 14.32C108.361 15.392 108.289 16.368 108.561 17.248C108.849 18.128 109.425 18.712 110.289 19C110.897 19.176 111.449 19.184 111.945 19.024C112.041 19.008 112.185 18.904 112.377 18.712L112.785 18.304C113.009 18.096 113.193 17.928 113.337 17.8C113.673 17.56 114.033 17.464 114.417 17.512C114.817 17.544 115.137 17.72 115.377 18.04C115.633 18.36 115.737 18.72 115.689 19.12C115.641 19.52 115.465 19.84 115.161 20.08C115.065 20.144 114.945 20.248 114.801 20.392L114.369 20.824C113.857 21.304 113.345 21.624 112.833 21.784ZM119.238 22.12C118.982 22.44 118.646 22.624 118.23 22.672C117.814 22.72 117.446 22.616 117.126 22.36C116.806 22.104 116.622 21.768 116.574 21.352C116.526 20.936 116.63 20.568 116.886 20.248L117.75 19.264C118.054 18.944 118.294 18.68 118.47 18.472C118.646 18.264 118.798 18.032 118.926 17.776C119.15 17.312 119.254 16.312 119.238 14.776C119.238 14.216 119.214 13.496 119.166 12.616C119.134 11.72 119.118 11.176 119.118 10.984C119.118 10.872 119.126 10.768 119.142 10.672C119.174 10.304 119.318 9.992 119.574 9.736C119.846 9.464 120.174 9.32 120.558 9.304C120.99 9.272 121.438 9.248 121.902 9.232C122.382 9.2 122.694 9.184 122.838 9.184C122.982 9.168 123.15 9.16 123.342 9.16C123.55 9.144 123.734 9.136 123.894 9.136H124.518C124.742 9.136 125.102 9.144 125.598 9.16C126.11 9.16 126.654 9.16 127.23 9.16C127.358 9.16 127.486 9.176 127.614 9.208H127.638C128.054 9.24 128.39 9.416 128.646 9.736C128.918 10.056 129.038 10.416 129.006 10.816C128.686 14.816 128.526 18.056 128.526 20.536C128.526 20.952 128.382 21.304 128.094 21.592C127.806 21.88 127.454 22.024 127.038 22.024C126.622 22.024 126.27 21.88 125.982 21.592C125.694 21.304 125.55 20.952 125.55 20.536C125.55 18.088 125.67 15.288 125.91 12.136C124.294 12.136 123.038 12.16 122.142 12.208C122.206 13.312 122.238 14.16 122.238 14.752C122.238 16.8 122.03 18.24 121.614 19.072C121.438 19.44 121.19 19.832 120.87 20.248C120.566 20.648 120.23 21.04 119.862 21.424C119.51 21.808 119.302 22.04 119.238 22.12ZM136.174 22C135.262 21.84 134.438 21.552 133.702 21.136C132.918 20.64 132.294 20.048 131.83 19.36C131.382 18.624 131.11 17.88 131.014 17.128C130.918 16.36 130.934 15.6 131.062 14.848C131.206 14.096 131.454 13.384 131.806 12.712C132.174 12.04 132.63 11.44 133.174 10.912C133.718 10.368 134.334 9.936 135.022 9.616C135.71 9.28 136.478 9.128 137.326 9.16C138.19 9.176 139.046 9.408 139.894 9.856C141.014 10.448 141.854 11.28 142.414 12.352C142.686 12.848 142.846 13.456 142.894 14.176L142.942 14.872C142.942 15.096 142.95 15.272 142.966 15.4C143.014 15.688 142.974 15.96 142.846 16.216C142.734 16.472 142.55 16.672 142.294 16.816C142.022 17.024 141.718 17.112 141.382 17.08C138.79 16.936 136.302 16.92 133.918 17.032C134.11 17.736 134.534 18.288 135.19 18.688C135.574 18.912 136.046 19.08 136.606 19.192C137.182 19.288 137.654 19.28 138.022 19.168C138.166 19.12 138.358 19 138.598 18.808L139.102 18.4C139.31 18.208 139.51 18.048 139.702 17.92C140.022 17.696 140.374 17.624 140.758 17.704C141.158 17.784 141.47 17.992 141.694 18.328C141.918 18.648 141.99 19 141.91 19.384C141.83 19.768 141.63 20.08 141.31 20.32C141.214 20.384 141.086 20.48 140.926 20.608L140.398 21.064C139.838 21.48 139.31 21.76 138.814 21.904C137.966 22.128 137.086 22.16 136.174 22ZM134.302 14.128C136.158 14.064 138.054 14.064 139.99 14.128C139.974 13.92 139.942 13.776 139.894 13.696C139.59 13.136 139.142 12.696 138.55 12.376C137.734 11.96 136.95 11.912 136.198 12.232C135.446 12.536 134.83 13.136 134.35 14.032L134.302 14.128ZM145.598 25.048C145.534 23.048 145.43 19.776 145.286 15.232C145.014 14.96 144.862 14.632 144.83 14.248C144.814 13.864 144.926 13.52 145.166 13.216L145.238 13.12L145.19 10.888C145.174 10.472 145.302 10.112 145.574 9.808C145.862 9.504 146.214 9.352 146.63 9.352C147.222 9.336 147.67 9.6 147.974 10.144C149.686 8.912 151.334 8.568 152.918 9.112C153.782 9.4 154.51 9.896 155.102 10.6C155.694 11.32 156.15 12.128 156.47 13.024C157.174 14.832 157.254 16.504 156.71 18.04C156.438 18.968 155.958 19.784 155.27 20.488C154.598 21.176 153.75 21.648 152.726 21.904C151.494 22.192 150.35 22.104 149.294 21.64C149.038 21.528 148.758 21.376 148.454 21.184C148.502 22.544 148.542 23.8 148.574 24.952C148.59 25.368 148.454 25.72 148.166 26.008C147.894 26.312 147.55 26.472 147.134 26.488C146.718 26.504 146.358 26.368 146.054 26.08C145.766 25.808 145.614 25.464 145.598 25.048ZM152.006 18.976C152.886 18.768 153.478 18.304 153.782 17.584C154.118 16.448 154.07 15.256 153.638 14.008C153.238 12.872 152.678 12.184 151.958 11.944C151.158 11.672 150.166 12.088 148.982 13.192C148.774 13.384 148.534 13.672 148.262 14.056L148.358 17.224L149.102 17.896C149.406 18.184 149.654 18.4 149.846 18.544C150.038 18.672 150.254 18.792 150.494 18.904C150.926 19.096 151.43 19.12 152.006 18.976Z" fill="#E98074"/>
<path d="M1.95008 45.6C1.95008 45.32 1.95008 44.4 1.95008 42.84C1.96341 41.2667 1.96341 40.1933 1.95008 39.62C1.95008 39.0467 1.93674 38.2067 1.91008 37.1C1.89674 35.98 1.87008 34.98 1.83008 34.1C1.81674 33.7133 1.93674 33.38 2.19008 33.1C2.45674 32.82 2.78341 32.6667 3.17008 32.64H3.27008C5.11008 32.6133 7.59008 32.6133 10.7101 32.64C11.0834 32.64 11.4101 32.78 11.6901 33.06C11.9567 33.34 12.0901 33.6733 12.0901 34.06C12.0901 34.4333 11.9501 34.76 11.6701 35.04C11.3901 35.3067 11.0567 35.44 10.6701 35.44C8.19008 35.4133 6.19008 35.4067 4.67008 35.42C4.69674 36.2733 4.71675 37.1667 4.73008 38.1C6.61008 38.1 8.34341 38.08 9.93008 38.04C10.3167 38.04 10.6501 38.1733 10.9301 38.44C11.2101 38.7067 11.3501 39.0333 11.3501 39.42C11.3634 39.7933 11.2367 40.12 10.9701 40.4C10.7034 40.68 10.3834 40.8267 10.0101 40.84C8.41008 40.8667 6.65675 40.8867 4.75008 40.9V45.6C4.75008 45.9867 4.61008 46.32 4.33008 46.6C4.06341 46.8667 3.73674 47 3.35008 47C2.96341 47 2.63008 46.8667 2.35008 46.6C2.08341 46.32 1.95008 45.9867 1.95008 45.6ZM12.7495 46.58C12.4695 46.3133 12.3295 45.9933 12.3295 45.62C12.3161 44.3 12.3095 43.26 12.3095 42.5C12.2828 42.34 12.2828 42.1867 12.3095 42.04C12.2961 40.56 12.2895 39.22 12.2895 38.02C12.2895 37.5 12.4228 37.1067 12.6895 36.84C12.9695 36.56 13.3028 36.42 13.6895 36.42C13.9695 36.42 14.2228 36.5 14.4495 36.66C14.6895 36.8067 14.8628 37.0733 14.9695 37.46C15.5028 37.1667 16.3028 36.8333 17.3695 36.46C17.7161 36.34 18.0495 36.36 18.3695 36.52C18.7028 36.6667 18.9295 36.9133 19.0495 37.26C19.1695 37.6067 19.1495 37.9467 18.9895 38.28C18.8428 38.6 18.5961 38.82 18.2495 38.94C17.0228 39.3667 15.9761 39.7867 15.1095 40.2C15.0561 40.6267 15.0495 41.2333 15.0895 42.02C15.1028 42.86 15.1161 44.0467 15.1295 45.58C15.1295 45.9667 14.9895 46.3 14.7095 46.58C14.4428 46.86 14.1161 47 13.7295 47C13.3561 47 13.0295 46.86 12.7495 46.58ZM23.4095 47.14C22.2495 46.9133 21.3428 46.38 20.6895 45.54C20.0228 44.7 19.6228 43.74 19.4895 42.66C19.3695 41.66 19.4828 40.66 19.8295 39.66C20.1761 38.6467 20.7361 37.8133 21.5095 37.16C21.8161 36.8933 22.2095 36.6867 22.6895 36.54C22.7028 36.54 22.8428 36.5 23.1095 36.42C23.2161 36.3933 23.2961 36.3667 23.3495 36.34C23.7228 36.1933 24.0961 36.2067 24.4695 36.38C25.7228 36.58 26.5628 36.7867 26.9895 37C27.4828 37.24 27.9028 37.5733 28.2495 38C28.5961 38.4267 28.8361 38.88 28.9695 39.36C29.1161 39.8267 29.2228 40.3267 29.2895 40.86C29.3561 41.38 29.3495 41.8533 29.2695 42.28C29.2028 42.9333 29.0561 43.5667 28.8295 44.18C28.6028 44.78 28.2561 45.3533 27.7895 45.9C27.3228 46.4467 26.7761 46.8333 26.1495 47.06C25.3895 47.3267 24.4761 47.3533 23.4095 47.14ZM23.9295 44.42C24.5028 44.5267 24.9361 44.5267 25.2295 44.42C25.4828 44.3267 25.7361 44.0667 25.9895 43.64C26.2561 43.2 26.4228 42.6467 26.4895 41.98C26.5695 41.3133 26.5295 40.7667 26.3695 40.34C26.2095 39.9 26.0161 39.6267 25.7895 39.52C25.6161 39.44 25.4561 39.3867 25.3095 39.36C25.1628 39.32 24.9495 39.2867 24.6695 39.26C24.4028 39.22 24.1361 39.1667 23.8695 39.1C23.6428 39.1667 23.5228 39.2 23.5095 39.2L23.3095 39.28C22.9361 39.6 22.6495 40.04 22.4495 40.6C22.2495 41.16 22.1895 41.74 22.2695 42.34C22.3361 42.9133 22.5095 43.38 22.7895 43.74C23.0828 44.1 23.4628 44.3267 23.9295 44.42ZM40.1357 45.74C40.1224 46.1 39.9824 46.4067 39.7157 46.66C39.449 46.9133 39.1357 47.0333 38.7757 47.02C38.4157 47.0067 38.109 46.8667 37.8557 46.6C37.6024 46.3333 37.4824 46.02 37.4957 45.66C37.4957 45.5133 37.509 45.0733 37.5357 44.34C37.5757 43.6067 37.5957 43.04 37.5957 42.64C37.609 42.24 37.5957 41.78 37.5557 41.26C37.5157 40.7267 37.4424 40.3 37.3357 39.98C37.2557 39.7267 37.0957 39.52 36.8557 39.36C36.6157 39.1867 36.3157 39.0867 35.9557 39.06C35.5824 39.02 35.2357 39.0667 34.9157 39.2C34.609 39.32 34.3824 39.4933 34.2357 39.72C34.1824 39.8933 34.149 40.0133 34.1357 40.08C34.1357 40.1333 34.1357 40.22 34.1357 40.34C34.1357 40.8067 34.1424 41.6467 34.1557 42.86C34.169 44.06 34.1757 44.9733 34.1757 45.6C34.1757 45.9867 34.0357 46.32 33.7557 46.6C33.489 46.8667 33.1624 47 32.7757 47C32.389 47 32.0557 46.8667 31.7757 46.6C31.509 46.32 31.3757 45.9867 31.3757 45.6C31.3757 45.04 31.3624 43.8933 31.3357 42.16C31.3224 40.4267 31.269 39.1 31.1757 38.18C31.109 37.7 31.2024 37.32 31.4557 37.04C31.709 36.7467 32.0357 36.6 32.4357 36.6C33.1557 36.64 33.5757 36.9867 33.6957 37.64C34.309 36.8667 35.1557 36.46 36.2357 36.42C37.1824 36.4333 37.9557 36.6933 38.5557 37.2C39.1557 37.6933 39.589 38.3533 39.8557 39.18C40.0024 39.6333 40.1024 40.2067 40.1557 40.9C40.2224 41.5933 40.249 42.18 40.2357 42.66C40.2357 43.1267 40.2157 43.7533 40.1757 44.54C40.149 45.3267 40.1357 45.7267 40.1357 45.74ZM46.108 47.04C45.8414 47.04 45.5814 46.9533 45.328 46.78C45.1814 46.7267 45.0414 46.66 44.908 46.58L44.388 46.28C43.8547 45.9733 43.4547 45.6867 43.188 45.42C42.9614 45.1267 42.8214 44.84 42.768 44.56C42.7147 44.2667 42.6814 43.84 42.668 43.28V42.88C42.6547 42.4933 42.648 41.5933 42.648 40.18C42.648 39.6067 42.6547 39.1733 42.668 38.88H42.288C41.9547 38.88 41.6614 38.7667 41.408 38.54C41.168 38.3 41.048 38 41.048 37.64C41.048 37.2667 41.1747 36.96 41.428 36.72C41.6814 36.4667 41.9747 36.34 42.308 36.34H42.668L42.688 35.48V34.86C42.7014 34.4333 42.8414 34.1067 43.108 33.88C43.388 33.64 43.708 33.52 44.068 33.52C44.4414 33.52 44.768 33.6467 45.048 33.9C45.3414 34.1533 45.488 34.5 45.488 34.94L45.448 36.3H46.188C46.668 36.3 47.028 36.4267 47.268 36.68C47.508 36.9333 47.628 37.2533 47.628 37.64C47.628 38.0133 47.5014 38.3333 47.248 38.6C46.9947 38.8533 46.6214 38.98 46.128 38.98H45.388C45.388 39.5267 45.3814 39.9333 45.368 40.2C45.3547 40.48 45.348 40.88 45.348 41.4C45.348 42.2533 45.3747 42.9933 45.428 43.62C45.4814 43.6733 45.5147 43.7 45.528 43.7L45.728 43.84L45.888 43.92L46.068 44.02L46.228 44.1C46.468 44.2067 46.6747 44.3267 46.848 44.46C47.2614 44.74 47.468 45.1133 47.468 45.58C47.468 45.9533 47.3347 46.2933 47.068 46.6C46.8014 46.8933 46.4814 47.04 46.108 47.04ZM50.2477 42.92C49.8744 42.92 49.5611 42.7933 49.3077 42.54C49.0544 42.2733 48.9277 41.96 48.9277 41.6C48.9277 41.24 49.0544 40.9333 49.3077 40.68C49.5611 40.4133 49.8744 40.28 50.2477 40.28H53.7877C54.1611 40.28 54.4744 40.4133 54.7277 40.68C54.9811 40.9333 55.1077 41.24 55.1077 41.6C55.1077 41.96 54.9811 42.2733 54.7277 42.54C54.4744 42.7933 54.1611 42.92 53.7877 42.92H50.2477ZM67.1713 47.02C65.198 47.02 62.5047 47 59.0913 46.96C58.8247 46.96 58.578 46.8867 58.3513 46.74C58.138 46.58 57.978 46.3867 57.8713 46.16C57.7113 45.92 57.6313 45.66 57.6313 45.38C57.6447 44.9133 57.638 43.0333 57.6113 39.74C57.598 37.34 57.658 35.4533 57.7913 34.08C57.8047 33.9067 57.8447 33.7467 57.9113 33.6C58.018 33.3333 58.1847 33.12 58.4113 32.96C58.638 32.7867 58.898 32.6933 59.1913 32.68C60.1647 32.6667 61.478 32.6667 63.1313 32.68C64.7847 32.68 66.098 32.6733 67.0713 32.66C67.458 32.66 67.7847 32.7933 68.0513 33.06C68.3313 33.3267 68.4713 33.6533 68.4713 34.04C68.4713 34.4133 68.338 34.74 68.0713 35.02C67.818 35.2867 67.498 35.42 67.1113 35.42C66.3647 35.42 65.2513 35.42 63.7713 35.42C62.2913 35.4067 61.178 35.4067 60.4313 35.42C60.3913 36.2333 60.3647 37.1933 60.3513 38.3C60.9913 38.2867 62.9647 38.28 66.2713 38.28C66.658 38.28 66.9847 38.4133 67.2513 38.68C67.5313 38.9467 67.6713 39.2733 67.6713 39.66C67.6713 40.0333 67.5313 40.36 67.2513 40.64C66.9847 40.9067 66.658 41.04 66.2713 41.04C62.9513 41.04 60.9847 41.0467 60.3713 41.06C60.398 42.5533 60.4047 43.6067 60.3913 44.22C63.098 44.2467 65.358 44.26 67.1713 44.26C67.558 44.26 67.8847 44.3933 68.1513 44.66C68.418 44.9267 68.5513 45.2533 68.5513 45.64C68.5513 46.0267 68.418 46.3533 68.1513 46.62C67.8847 46.8867 67.558 47.02 67.1713 47.02ZM79.1591 45.74C79.1458 46.1 79.0058 46.4067 78.7391 46.66C78.4725 46.9133 78.1591 47.0333 77.7991 47.02C77.4391 47.0067 77.1325 46.8667 76.8791 46.6C76.6258 46.3333 76.5058 46.02 76.5191 45.66C76.5191 45.5133 76.5325 45.0733 76.5591 44.34C76.5991 43.6067 76.6191 43.04 76.6191 42.64C76.6325 42.24 76.6191 41.78 76.5791 41.26C76.5391 40.7267 76.4658 40.3 76.3591 39.98C76.2791 39.7267 76.1191 39.52 75.8791 39.36C75.6391 39.1867 75.3391 39.0867 74.9791 39.06C74.6058 39.02 74.2591 39.0667 73.9391 39.2C73.6325 39.32 73.4058 39.4933 73.2591 39.72C73.2058 39.8933 73.1725 40.0133 73.1591 40.08C73.1591 40.1333 73.1591 40.22 73.1591 40.34C73.1591 40.8067 73.1658 41.6467 73.1791 42.86C73.1925 44.06 73.1991 44.9733 73.1991 45.6C73.1991 45.9867 73.0591 46.32 72.7791 46.6C72.5125 46.8667 72.1858 47 71.7991 47C71.4125 47 71.0791 46.8667 70.7991 46.6C70.5325 46.32 70.3991 45.9867 70.3991 45.6C70.3991 45.04 70.3858 43.8933 70.3591 42.16C70.3458 40.4267 70.2925 39.1 70.1991 38.18C70.1325 37.7 70.2258 37.32 70.4791 37.04C70.7325 36.7467 71.0591 36.6 71.4591 36.6C72.1791 36.64 72.5991 36.9867 72.7191 37.64C73.3325 36.8667 74.1791 36.46 75.2591 36.42C76.2058 36.4333 76.9791 36.6933 77.5791 37.2C78.1791 37.6933 78.6125 38.3533 78.8791 39.18C79.0258 39.6333 79.1258 40.2067 79.1791 40.9C79.2458 41.5933 79.2725 42.18 79.2591 42.66C79.2591 43.1267 79.2391 43.7533 79.1991 44.54C79.1725 45.3267 79.1591 45.7267 79.1591 45.74ZM85.6315 47.2C84.8715 47.2 84.1382 47 83.4315 46.6C82.7248 46.2 82.1448 45.62 81.6915 44.86C81.2515 44.1 81.0315 43.2067 81.0315 42.18C81.0315 41.1267 81.2448 40.1533 81.6715 39.26C82.0982 38.3667 82.6915 37.66 83.4515 37.14C84.2248 36.6067 85.0848 36.34 86.0315 36.34C86.7115 36.34 87.3648 36.46 87.9915 36.7C87.9782 35.14 87.9648 34.26 87.9515 34.06C87.9515 33.62 88.0915 33.28 88.3715 33.04C88.6515 32.7867 88.9782 32.66 89.3515 32.66C89.7115 32.66 90.0315 32.78 90.3115 33.02C90.5915 33.26 90.7382 33.5933 90.7515 34.02C90.8182 40.5667 90.8515 44.44 90.8515 45.64C90.8515 46.12 90.7382 46.4933 90.5115 46.76C90.2982 47.0133 89.9915 47.14 89.5915 47.14C89.2315 47.14 88.9315 47.0333 88.6915 46.82C88.4648 46.5933 88.3315 46.2533 88.2915 45.8C87.9982 46.2267 87.6382 46.5667 87.2115 46.82C86.7982 47.0733 86.2715 47.2 85.6315 47.2ZM86.1315 44.54C86.5582 44.54 86.9115 44.4 87.1915 44.12C87.4315 43.88 87.6448 43.4933 87.8315 42.96C87.9248 42.72 88.0048 42.5667 88.0715 42.5C88.0448 41.3533 88.0315 40.5133 88.0315 39.98C88.0048 39.9533 87.9248 39.8867 87.7915 39.78C87.6715 39.66 87.5115 39.5267 87.3115 39.38C86.9648 39.1533 86.5315 39.04 86.0115 39.04C85.3315 39.04 84.7915 39.3267 84.3915 39.9C84.0048 40.4733 83.8115 41.16 83.8115 41.96C83.8115 42.7067 84.0248 43.3267 84.4515 43.82C84.8782 44.3 85.4382 44.54 86.1315 44.54ZM99.0218 49.54C98.9685 47.8733 98.8818 45.1467 98.7618 41.36C98.5351 41.1333 98.4085 40.86 98.3818 40.54C98.3685 40.22 98.4618 39.9333 98.6618 39.68L98.7218 39.6L98.6818 37.74C98.6685 37.3933 98.7751 37.0933 99.0018 36.84C99.2418 36.5867 99.5351 36.46 99.8818 36.46C100.375 36.4467 100.748 36.6667 101.002 37.12C102.428 36.0933 103.802 35.8067 105.122 36.26C105.842 36.5 106.448 36.9133 106.942 37.5C107.435 38.1 107.815 38.7733 108.082 39.52C108.668 41.0267 108.735 42.42 108.282 43.7C108.055 44.4733 107.655 45.1533 107.082 45.74C106.522 46.3133 105.815 46.7067 104.962 46.92C103.935 47.16 102.982 47.0867 102.102 46.7C101.888 46.6067 101.655 46.48 101.402 46.32C101.442 47.4533 101.475 48.5 101.502 49.46C101.515 49.8067 101.402 50.1 101.162 50.34C100.935 50.5933 100.648 50.7267 100.302 50.74C99.9551 50.7533 99.6551 50.64 99.4018 50.4C99.1618 50.1733 99.0351 49.8867 99.0218 49.54ZM104.362 44.48C105.095 44.3067 105.588 43.92 105.842 43.32C106.122 42.3733 106.082 41.38 105.722 40.34C105.388 39.3933 104.922 38.82 104.322 38.62C103.655 38.3933 102.828 38.74 101.842 39.66C101.668 39.82 101.468 40.06 101.242 40.38L101.322 43.02L101.942 43.58C102.195 43.82 102.402 44 102.562 44.12C102.722 44.2267 102.902 44.3267 103.102 44.42C103.462 44.58 103.882 44.6 104.362 44.48ZM115.018 46.88C114.338 47.0933 113.704 47.1333 113.118 47C112.531 46.8533 112.004 46.5933 111.538 46.22C111.084 45.8467 110.711 45.4133 110.418 44.92C110.138 44.4133 109.964 43.9 109.898 43.38C109.764 42.3933 109.818 41.42 110.058 40.46C110.311 39.4867 110.738 38.6533 111.338 37.96C112.004 37.16 112.824 36.6533 113.798 36.44C114.771 36.2133 115.871 36.3333 117.098 36.8C117.511 36.96 117.951 37.24 118.418 37.64C118.471 37.7067 118.551 37.7867 118.658 37.88L118.978 38.16C119.071 38.24 119.164 38.3133 119.258 38.38C119.524 38.58 119.678 38.8533 119.718 39.2C119.771 39.5333 119.698 39.8333 119.498 40.1C119.338 40.3 119.131 40.44 118.878 40.52L118.898 40.54C119.004 40.78 119.064 41.0933 119.078 41.48C119.091 41.64 119.091 41.7933 119.078 41.94C119.078 42.0733 119.078 42.1533 119.078 42.18C119.078 42.2067 119.084 42.2533 119.098 42.32C119.191 42.7333 119.291 43.2067 119.398 43.74C119.424 43.9 119.444 44 119.458 44.04C119.484 44.08 119.518 44.12 119.558 44.16L120.418 45C120.671 45.2533 120.791 45.5533 120.778 45.9C120.778 46.2333 120.651 46.52 120.398 46.76C120.158 47 119.871 47.1133 119.538 47.1C119.204 47.1 118.918 46.98 118.678 46.74L117.838 45.92C117.544 45.6267 117.338 45.36 117.218 45.12L117.198 45.06C117.184 45.0867 117.131 45.16 117.038 45.28L116.818 45.56L116.538 45.86C116.431 45.98 116.324 46.0867 116.218 46.18L115.858 46.44C115.724 46.5333 115.584 46.62 115.438 46.7C115.304 46.7667 115.164 46.8267 115.018 46.88ZM114.218 44.56C114.271 44.5467 114.324 44.5267 114.378 44.5C114.431 44.46 114.478 44.4267 114.518 44.4C114.558 44.36 114.611 44.3 114.678 44.22C114.744 44.14 114.804 44.0733 114.858 44.02C114.911 43.9667 114.998 43.8733 115.118 43.74L115.378 43.4C115.471 43.2933 115.598 43.0467 115.758 42.66C115.771 42.62 115.778 42.5733 115.778 42.52C115.791 42.4667 115.798 42.3733 115.798 42.24C115.811 42.0933 115.831 41.9333 115.858 41.76C115.951 40.84 116.324 40.22 116.978 39.9C117.031 39.8733 117.084 39.8533 117.138 39.84L116.818 39.52C116.551 39.2933 116.331 39.1467 116.158 39.08C114.904 38.56 113.924 38.72 113.218 39.56C112.858 39.96 112.598 40.48 112.438 41.12C112.278 41.7467 112.244 42.4 112.338 43.08C112.404 43.5733 112.644 43.9733 113.058 44.28C113.471 44.5867 113.858 44.68 114.218 44.56ZM125.499 47.26C124.632 47.26 123.879 47.1067 123.239 46.8C122.599 46.48 122.112 46.0933 121.779 45.64C121.445 45.1867 121.279 44.76 121.279 44.36C121.279 44.0133 121.379 43.7267 121.579 43.5C121.779 43.26 122.039 43.14 122.359 43.14C122.692 43.14 122.999 43.3133 123.279 43.66C123.532 43.98 123.745 44.2267 123.919 44.4C124.092 44.5733 124.325 44.7267 124.619 44.86C124.912 44.9933 125.265 45.06 125.679 45.06C126.145 45.06 126.532 44.9333 126.839 44.68C127.159 44.4267 127.319 44.14 127.319 43.82C127.319 43.46 127.152 43.1667 126.819 42.94C126.499 42.7 126.079 42.58 125.559 42.58C125.145 42.58 124.812 42.48 124.559 42.28C124.319 42.0667 124.199 41.8067 124.199 41.5C124.199 41.18 124.312 40.9267 124.539 40.74C124.765 40.54 125.045 40.44 125.379 40.44C125.899 40.44 126.312 40.3333 126.619 40.12C126.925 39.8933 127.079 39.6133 127.079 39.28C127.079 39 126.952 38.78 126.699 38.62C126.445 38.4467 126.092 38.36 125.639 38.36C125.092 38.36 124.639 38.4933 124.279 38.76C123.919 39.0133 123.692 39.3533 123.599 39.78C123.532 40.0867 123.412 40.3267 123.239 40.5C123.065 40.6733 122.845 40.76 122.579 40.76C122.272 40.76 122.032 40.66 121.859 40.46C121.685 40.2467 121.599 39.9867 121.599 39.68C121.599 39.08 121.772 38.5267 122.119 38.02C122.465 37.5133 122.945 37.1133 123.559 36.82C124.185 36.5133 124.892 36.36 125.679 36.36C126.292 36.36 126.885 36.4933 127.459 36.76C128.045 37.0133 128.519 37.3667 128.879 37.82C129.252 38.2733 129.439 38.78 129.439 39.34C129.439 39.82 129.299 40.2733 129.019 40.7C128.752 41.1267 128.372 41.4733 127.879 41.74V41.16C129.092 41.68 129.699 42.5067 129.699 43.64C129.699 44.2667 129.525 44.86 129.179 45.42C128.832 45.9667 128.339 46.4133 127.699 46.76C127.059 47.0933 126.325 47.26 125.499 47.26ZM131.971 49.54C131.918 47.8733 131.831 45.1467 131.711 41.36C131.484 41.1333 131.358 40.86 131.331 40.54C131.318 40.22 131.411 39.9333 131.611 39.68L131.671 39.6L131.631 37.74C131.618 37.3933 131.724 37.0933 131.951 36.84C132.191 36.5867 132.484 36.46 132.831 36.46C133.324 36.4467 133.698 36.6667 133.951 37.12C135.378 36.0933 136.751 35.8067 138.071 36.26C138.791 36.5 139.398 36.9133 139.891 37.5C140.384 38.1 140.764 38.7733 141.031 39.52C141.618 41.0267 141.684 42.42 141.231 43.7C141.004 44.4733 140.604 45.1533 140.031 45.74C139.471 46.3133 138.764 46.7067 137.911 46.92C136.884 47.16 135.931 47.0867 135.051 46.7C134.838 46.6067 134.604 46.48 134.351 46.32C134.391 47.4533 134.424 48.5 134.451 49.46C134.464 49.8067 134.351 50.1 134.111 50.34C133.884 50.5933 133.598 50.7267 133.251 50.74C132.904 50.7533 132.604 50.64 132.351 50.4C132.111 50.1733 131.984 49.8867 131.971 49.54ZM137.311 44.48C138.044 44.3067 138.538 43.92 138.791 43.32C139.071 42.3733 139.031 41.38 138.671 40.34C138.338 39.3933 137.871 38.82 137.271 38.62C136.604 38.3933 135.778 38.74 134.791 39.66C134.618 39.82 134.418 40.06 134.191 40.38L134.271 43.02L134.891 43.58C135.144 43.82 135.351 44 135.511 44.12C135.671 44.2267 135.851 44.3267 136.051 44.42C136.411 44.58 136.831 44.6 137.311 44.48ZM147.967 46.88C147.287 47.0933 146.654 47.1333 146.067 47C145.48 46.8533 144.954 46.5933 144.487 46.22C144.034 45.8467 143.66 45.4133 143.367 44.92C143.087 44.4133 142.914 43.9 142.847 43.38C142.714 42.3933 142.767 41.42 143.007 40.46C143.26 39.4867 143.687 38.6533 144.287 37.96C144.954 37.16 145.774 36.6533 146.747 36.44C147.72 36.2133 148.82 36.3333 150.047 36.8C150.46 36.96 150.9 37.24 151.367 37.64C151.42 37.7067 151.5 37.7867 151.607 37.88L151.927 38.16C152.02 38.24 152.114 38.3133 152.207 38.38C152.474 38.58 152.627 38.8533 152.667 39.2C152.72 39.5333 152.647 39.8333 152.447 40.1C152.287 40.3 152.08 40.44 151.827 40.52L151.847 40.54C151.954 40.78 152.014 41.0933 152.027 41.48C152.04 41.64 152.04 41.7933 152.027 41.94C152.027 42.0733 152.027 42.1533 152.027 42.18C152.027 42.2067 152.034 42.2533 152.047 42.32C152.14 42.7333 152.24 43.2067 152.347 43.74C152.374 43.9 152.394 44 152.407 44.04C152.434 44.08 152.467 44.12 152.507 44.16L153.367 45C153.62 45.2533 153.74 45.5533 153.727 45.9C153.727 46.2333 153.6 46.52 153.347 46.76C153.107 47 152.82 47.1133 152.487 47.1C152.154 47.1 151.867 46.98 151.627 46.74L150.787 45.92C150.494 45.6267 150.287 45.36 150.167 45.12L150.147 45.06C150.134 45.0867 150.08 45.16 149.987 45.28L149.767 45.56L149.487 45.86C149.38 45.98 149.274 46.0867 149.167 46.18L148.807 46.44C148.674 46.5333 148.534 46.62 148.387 46.7C148.254 46.7667 148.114 46.8267 147.967 46.88ZM147.167 44.56C147.22 44.5467 147.274 44.5267 147.327 44.5C147.38 44.46 147.427 44.4267 147.467 44.4C147.507 44.36 147.56 44.3 147.627 44.22C147.694 44.14 147.754 44.0733 147.807 44.02C147.86 43.9667 147.947 43.8733 148.067 43.74L148.327 43.4C148.42 43.2933 148.547 43.0467 148.707 42.66C148.72 42.62 148.727 42.5733 148.727 42.52C148.74 42.4667 148.747 42.3733 148.747 42.24C148.76 42.0933 148.78 41.9333 148.807 41.76C148.9 40.84 149.274 40.22 149.927 39.9C149.98 39.8733 150.034 39.8533 150.087 39.84L149.767 39.52C149.5 39.2933 149.28 39.1467 149.107 39.08C147.854 38.56 146.874 38.72 146.167 39.56C145.807 39.96 145.547 40.48 145.387 41.12C145.227 41.7467 145.194 42.4 145.287 43.08C145.354 43.5733 145.594 43.9733 146.007 44.28C146.42 44.5867 146.807 44.68 147.167 44.56ZM160.468 46.94C159.015 47.14 157.788 46.8533 156.788 46.08C155.948 45.4267 155.335 44.48 154.948 43.24C154.641 42.12 154.495 41.02 154.508 39.94C154.535 38.86 154.675 37.8533 154.928 36.92C155.221 35.8533 155.588 35.04 156.028 34.48C156.575 33.7867 157.375 33.2467 158.428 32.86C158.788 32.7267 159.301 32.6667 159.968 32.68C160.301 32.68 160.508 32.6667 160.588 32.64C160.708 32.6 160.861 32.4867 161.048 32.3L161.428 31.96C161.601 31.7867 161.755 31.6467 161.888 31.54C162.168 31.3267 162.475 31.24 162.808 31.28C163.155 31.32 163.435 31.48 163.648 31.76C163.861 32.0267 163.948 32.3333 163.908 32.68C163.868 33.0133 163.715 33.2867 163.448 33.5L163.128 33.78L162.728 34.14C162.315 34.5267 161.908 34.8 161.508 34.96C161.121 35.1067 160.595 35.18 159.928 35.18C159.568 35.1667 159.348 35.18 159.268 35.22C158.668 35.4333 158.241 35.7 157.988 36.02C157.868 36.18 157.761 36.3733 157.668 36.6C158.535 36.1333 159.395 35.9467 160.248 36.04C161.101 36.12 161.895 36.4333 162.628 36.98C163.468 37.62 164.081 38.4667 164.468 39.52C164.855 40.5733 164.908 41.68 164.628 42.84C164.321 44.0267 163.855 44.94 163.228 45.58C162.495 46.3267 161.575 46.78 160.468 46.94ZM160.108 44.46C160.668 44.38 161.121 44.1667 161.468 43.82C161.761 43.5133 162.001 42.9867 162.188 42.24C162.361 41.5733 162.341 40.9467 162.128 40.36C161.915 39.7733 161.575 39.3067 161.108 38.96C160.721 38.64 160.281 38.4867 159.788 38.5C159.308 38.5133 158.861 38.7267 158.448 39.14C158.315 39.26 158.181 39.48 158.048 39.8C158.021 39.8533 157.995 39.9133 157.968 39.98C157.941 40.0467 157.908 40.12 157.868 40.2C157.841 40.2667 157.821 40.3267 157.808 40.38C157.688 40.6467 157.581 40.8733 157.488 41.06C157.395 41.2333 157.268 41.38 157.108 41.5C157.161 41.86 157.235 42.1933 157.328 42.5C157.568 43.2467 157.895 43.78 158.308 44.1C158.761 44.4467 159.361 44.5667 160.108 44.46ZM168.666 46.44C167.826 45.9733 167.193 45.2933 166.766 44.4C166.34 43.5067 166.126 42.56 166.126 41.56C166.126 40.5733 166.333 39.6333 166.746 38.74C167.173 37.8467 167.806 37.16 168.646 36.68C169.046 36.4533 169.56 36.32 170.186 36.28C170.386 36.08 170.626 35.96 170.906 35.92C171.2 35.88 171.473 35.94 171.726 36.1C172.046 36.3133 172.52 36.5933 173.146 36.94C173.68 37.2467 174.073 37.5 174.326 37.7C174.726 38.06 175.026 38.4867 175.226 38.98C175.44 39.4733 175.606 40.1133 175.726 40.9C175.86 41.8333 175.78 42.7533 175.486 43.66C175.193 44.5667 174.72 45.32 174.066 45.92C173.36 46.5733 172.54 46.9533 171.606 47.06C170.673 47.1667 169.693 46.96 168.666 46.44ZM169.846 44.28C170.833 44.8267 171.68 44.7733 172.386 44.12C172.733 43.8 172.993 43.3867 173.166 42.88C173.34 42.36 173.38 41.8133 173.286 41.24C173.153 40.32 172.96 39.76 172.706 39.56C172.586 39.4533 172.34 39.2933 171.966 39.08L171.246 38.68C171.14 38.6933 171.013 38.7 170.866 38.7H170.646C170.513 38.7 170.413 38.7067 170.346 38.72C170.106 38.7333 169.946 38.76 169.866 38.8C169.48 39.0267 169.166 39.3867 168.926 39.88C168.7 40.3733 168.586 40.94 168.586 41.58C168.586 42.2067 168.7 42.7667 168.926 43.26C169.153 43.74 169.46 44.08 169.846 44.28ZM182.011 45.8C182.011 46.1333 181.885 46.4267 181.631 46.68C181.391 46.92 181.098 47.0333 180.751 47.02C180.418 47.02 180.125 46.9 179.871 46.66C179.631 46.4067 179.518 46.1067 179.531 45.76C179.558 43.24 179.551 40.96 179.511 38.92C178.445 38.92 177.738 38.9133 177.391 38.9C177.058 38.9 176.765 38.78 176.511 38.54C176.271 38.2867 176.151 37.9933 176.151 37.66C176.165 37.3133 176.291 37.02 176.531 36.78C176.785 36.5267 177.085 36.4067 177.431 36.42C181.271 36.4467 183.558 36.46 184.291 36.46C184.638 36.4467 184.931 36.5667 185.171 36.82C185.425 37.06 185.551 37.3533 185.551 37.7C185.565 38.0333 185.445 38.3267 185.191 38.58C184.951 38.82 184.665 38.94 184.331 38.94C184.105 38.9533 183.331 38.96 182.011 38.96C182.038 41.0133 182.038 43.2933 182.011 45.8ZM192.804 43.54C191.924 43.7133 191.27 43.7933 190.844 43.78C189.79 43.74 188.957 43.5533 188.344 43.22C187.57 42.78 187.037 42.12 186.744 41.24C186.45 40.3733 186.277 39.1867 186.224 37.68C186.21 37.3467 186.317 37.0533 186.544 36.8C186.784 36.5467 187.07 36.4133 187.404 36.4C187.75 36.3867 188.05 36.5 188.304 36.74C188.557 36.9667 188.69 37.2533 188.704 37.6C188.784 39.6133 189.07 40.76 189.564 41.04C189.817 41.1867 190.27 41.2667 190.924 41.28C191.324 41.2933 191.93 41.22 192.744 41.06C192.69 39.82 192.63 38.6933 192.564 37.68C192.537 37.3467 192.637 37.0533 192.864 36.8C193.09 36.5333 193.37 36.3867 193.704 36.36C194.05 36.3333 194.35 36.4333 194.604 36.66C194.87 36.8867 195.017 37.1733 195.044 37.52C195.15 38.9333 195.257 41.6733 195.364 45.74C195.377 46.0867 195.264 46.3867 195.024 46.64C194.797 46.8933 194.51 47.02 194.164 47.02C193.817 47.0333 193.517 46.9267 193.264 46.7C193.01 46.46 192.884 46.1667 192.884 45.82L192.804 43.54ZM198.341 46.82C197.914 46.5267 197.734 46.1267 197.801 45.62V45.5C197.654 42.7267 197.687 40.0467 197.901 37.46C197.927 37.1133 198.067 36.8333 198.321 36.62C198.587 36.3933 198.894 36.2933 199.241 36.32C199.587 36.3467 199.867 36.4933 200.081 36.76C200.307 37.0133 200.407 37.3133 200.381 37.66C200.261 39.22 200.201 40.7133 200.201 42.14L201.121 40.96C202.374 39.32 203.321 37.9667 203.961 36.9C204.174 36.5533 204.474 36.3533 204.861 36.3C205.007 36.2467 205.154 36.22 205.301 36.22C205.647 36.2067 205.947 36.32 206.201 36.56C206.454 36.7867 206.581 37.0733 206.581 37.42C206.607 38.2733 206.614 39.6533 206.601 41.56C206.587 43.3067 206.601 44.6933 206.641 45.72C206.654 46.0667 206.541 46.3667 206.301 46.62C206.074 46.8733 205.787 47.0067 205.441 47.02C205.107 47.0333 204.814 46.9267 204.561 46.7C204.307 46.46 204.174 46.1733 204.161 45.84C204.121 44.84 204.107 43.2733 204.121 41.14L203.101 42.48C201.221 44.96 200.207 46.3 200.061 46.5C199.874 46.7933 199.607 46.9667 199.261 47.02C198.927 47.0867 198.621 47.02 198.341 46.82ZM216.43 46.6C215.083 45.16 213.963 43.8267 213.07 42.6L211.65 43.9C211.703 44.4733 211.77 45.0467 211.85 45.62C211.89 45.9667 211.81 46.28 211.61 46.56C211.41 46.8267 211.136 46.98 210.79 47.02C210.443 47.0733 210.13 47 209.85 46.8C209.583 46.6 209.423 46.3267 209.37 45.98C209.036 43.6067 208.936 40.8 209.07 37.56C209.083 37.2133 209.216 36.9267 209.47 36.7C209.723 36.46 210.023 36.3533 210.37 36.38C210.716 36.3933 211.003 36.5267 211.23 36.78C211.47 37.0333 211.576 37.3333 211.55 37.68C211.51 38.76 211.49 39.7533 211.49 40.66L215.87 36.66C216.136 36.42 216.436 36.3133 216.77 36.34C217.116 36.3533 217.403 36.4933 217.63 36.76C217.87 37.0133 217.976 37.3133 217.95 37.66C217.936 37.9933 217.803 38.2733 217.55 38.5L214.93 40.9C215.796 42.14 216.923 43.48 218.31 44.92C218.536 45.1867 218.636 45.4933 218.61 45.84C218.596 46.1733 218.456 46.46 218.19 46.7C217.936 46.9267 217.636 47.0267 217.29 47C216.956 46.9867 216.67 46.8533 216.43 46.6Z" fill="#444444"/>
</svg>
