<svg width="410" height="512" viewBox="0 0 410 512" fill="none" xmlns="http://www.w3.org/2000/svg">
<path fill-rule="evenodd" clip-rule="evenodd" d="M384.2 0C391.112 0 397.512 2.816 402.376 7.424C406.984 12.288 409.8 18.688 409.8 25.6V281.6C409.8 288.512 406.984 294.912 402.376 299.776C397.512 304.384 391.112 307.2 384.2 307.2H25.8C18.888 307.2 12.488 304.384 7.62395 299.776C3.01595 294.912 0.199951 288.512 0.199951 281.6V25.6C0.199951 18.688 3.01595 12.288 7.62395 7.424C12.488 2.816 18.888 0 25.8 0H384.2ZM296.904 132.301L358.6 179.2V51.2H51.4V179.2L89.288 156.365C97.48 152.269 107.208 152.781 114.888 157.901L179.4 204.8L267.464 133.069C275.912 126.669 287.944 126.157 296.904 132.301Z" fill="#E98074"/>
<path d="M7.62395 365.824C12.488 361.216 18.888 358.4 25.8 358.4C32.712 358.4 39.112 361.216 43.976 365.824C48.584 370.688 51.4 377.088 51.4 384V486.4C51.4 493.312 48.584 499.712 43.976 504.576C39.112 509.184 32.712 512 25.8 512C18.888 512 12.488 509.184 7.62395 504.576C3.01595 499.712 0.199951 493.312 0.199951 486.4V384C0.199951 377.088 3.01595 370.688 7.62395 365.824ZM179.4 409.6C186.312 409.6 192.712 406.784 197.576 402.176C202.184 397.312 205 390.912 205 384C205 377.088 202.184 370.688 197.576 365.824C192.712 361.216 186.312 358.4 179.4 358.4C137.16 358.4 102.6 392.96 102.6 435.2C102.6 477.44 137.16 512 179.4 512C186.312 512 192.712 509.184 197.576 504.576C202.184 499.712 205 493.312 205 486.4C205 479.488 202.184 473.088 197.576 468.224C192.712 463.616 186.312 460.8 179.4 460.8C172.778 460.552 166.522 457.7 161.992 452.864C157.384 448.256 154.824 441.856 154.824 435.2C154.824 428.544 157.384 422.144 161.992 417.536C166.6 412.672 172.744 409.856 179.4 409.6Z" fill="#E98074"/>
<path fill-rule="evenodd" clip-rule="evenodd" d="M333 358.4C290.76 358.4 256.2 392.96 256.2 435.2C256.2 477.44 290.76 512 333 512C375.24 512 409.8 477.44 409.8 435.2C409.8 392.96 375.24 358.4 333 358.4ZM350.408 452.864C345.8 457.728 339.656 460.544 333 460.8C326.378 460.552 320.122 457.7 315.592 452.864C310.984 448.256 308.424 441.856 308.424 435.2C308.424 428.544 310.984 422.144 315.592 417.536C320.2 412.672 326.344 409.856 333 409.6C339.656 409.856 345.8 412.672 350.408 417.536C355.016 422.144 357.576 428.544 357.576 435.2C357.576 441.856 355.016 448.256 350.408 452.864Z" fill="#E98074"/>
</svg>
